<svg xmlns="http://www.w3.org/2000/svg" xmlns:xlink="http://www.w3.org/1999/xlink" width="500" zoomAndPan="magnify" viewBox="0 0 375 374.999991" height="500" preserveAspectRatio="xMidYMid meet" version="1.0"><defs><clipPath id="2d9c042dc9"><path d="M 0 0.929688 L 374.25 0.929688 L 374.25 375 L 0 375 Z M 0 0.929688 " clip-rule="nonzero"/></clipPath></defs><g clip-path="url(#2d9c042dc9)"><path fill="#000000" d="M 187.125 0.929688 C 83.777344 0.929688 0 84.710938 0 188.054688 C 0 291.402344 83.777344 375.179688 187.125 375.179688 C 290.472656 375.179688 374.25 291.402344 374.25 188.054688 C 374.25 84.710938 290.472656 0.929688 187.125 0.929688 Z M 295.9375 193.34375 C 290.601562 198.679688 282.730469 199.917969 276.210938 197.074219 L 276.210938 268.050781 C 276.210938 282.808594 264.246094 294.773438 249.484375 294.773438 L 124.765625 294.773438 C 110.003906 294.773438 98.039062 282.808594 98.039062 268.050781 L 98.039062 197.074219 C 91.519531 199.917969 83.648438 198.679688 78.316406 193.34375 C 71.355469 186.386719 71.355469 175.105469 78.316406 168.148438 L 174.527344 71.933594 C 181.484375 64.976562 192.765625 64.976562 199.722656 71.933594 L 295.933594 168.148438 C 302.894531 175.105469 302.894531 186.386719 295.9375 193.34375 Z M 295.9375 193.34375 " fill-opacity="1" fill-rule="nonzero"/></g><path fill="#000000" d="M 209.398438 196.78125 L 164.851562 196.78125 C 159.933594 196.78125 155.945312 200.769531 155.945312 205.691406 L 155.945312 259.140625 C 155.945312 264.0625 159.933594 268.050781 164.851562 268.050781 L 209.398438 268.050781 C 214.316406 268.050781 218.304688 264.0625 218.304688 259.140625 L 218.304688 205.691406 C 218.304688 200.769531 214.316406 196.78125 209.398438 196.78125 Z M 209.398438 196.78125 " fill-opacity="1" fill-rule="nonzero"/></svg>