<svg xmlns="http://www.w3.org/2000/svg" xmlns:xlink="http://www.w3.org/1999/xlink" width="500" zoomAndPan="magnify" viewBox="0 0 375 374.999991" height="500" preserveAspectRatio="xMidYMid meet" version="1.0"><defs><g/><clipPath id="68b7342d89"><path d="M 101.195312 52.535156 L 273.695312 52.535156 L 273.695312 82 L 101.195312 82 Z M 101.195312 52.535156 " clip-rule="nonzero"/></clipPath><clipPath id="2cece53786"><path d="M 101.195312 196 L 273.695312 196 L 273.695312 225.035156 L 101.195312 225.035156 Z M 101.195312 196 " clip-rule="nonzero"/></clipPath></defs><path fill="#004aad" d="M 178.867188 84.179688 L 135.71875 84.179688 C 135.335938 84.179688 134.96875 84.25 134.617188 84.398438 C 134.265625 84.542969 133.953125 84.75 133.683594 85.019531 C 133.414062 85.289062 133.207031 85.601562 133.058594 85.953125 C 132.914062 86.304688 132.839844 86.671875 132.839844 87.054688 L 132.839844 130.207031 C 132.839844 130.585938 132.914062 130.953125 133.058594 131.308594 C 133.207031 131.660156 133.414062 131.96875 133.683594 132.238281 C 133.953125 132.511719 134.265625 132.71875 134.617188 132.863281 C 134.96875 133.007812 135.335938 133.082031 135.71875 133.082031 L 150.101562 133.082031 C 150.484375 133.082031 150.847656 133.007812 151.203125 132.863281 C 151.554688 132.71875 151.867188 132.511719 152.136719 132.238281 C 152.40625 131.96875 152.613281 131.660156 152.757812 131.308594 C 152.90625 130.953125 152.976562 130.585938 152.976562 130.207031 L 152.976562 125.890625 C 152.976562 125.605469 153.003906 125.328125 153.0625 125.050781 C 153.117188 124.769531 153.199219 124.5 153.304688 124.238281 C 153.414062 123.976562 153.546875 123.730469 153.707031 123.492188 C 153.863281 123.257812 154.042969 123.039062 154.242188 122.839844 C 154.441406 122.640625 154.660156 122.460938 154.894531 122.304688 C 155.132812 122.144531 155.378906 122.011719 155.640625 121.902344 C 155.902344 121.796875 156.171875 121.714844 156.449219 121.660156 C 156.730469 121.601562 157.007812 121.574219 157.292969 121.574219 C 157.578125 121.574219 157.855469 121.601562 158.136719 121.660156 C 158.414062 121.714844 158.683594 121.796875 158.945312 121.902344 C 159.207031 122.011719 159.453125 122.144531 159.691406 122.304688 C 159.925781 122.460938 160.144531 122.640625 160.34375 122.839844 C 160.542969 123.039062 160.722656 123.257812 160.882812 123.492188 C 161.039062 123.730469 161.171875 123.976562 161.28125 124.238281 C 161.386719 124.5 161.46875 124.769531 161.523438 125.050781 C 161.582031 125.328125 161.609375 125.605469 161.609375 125.890625 L 161.609375 130.207031 C 161.609375 130.585938 161.679688 130.953125 161.828125 131.308594 C 161.972656 131.660156 162.179688 131.96875 162.449219 132.238281 C 162.71875 132.511719 163.03125 132.71875 163.382812 132.863281 C 163.738281 133.007812 164.101562 133.082031 164.484375 133.082031 L 178.867188 133.082031 C 179.25 133.082031 179.617188 133.007812 179.96875 132.863281 C 180.320312 132.71875 180.632812 132.511719 180.902344 132.238281 C 181.171875 131.96875 181.378906 131.660156 181.527344 131.308594 C 181.671875 130.953125 181.746094 130.585938 181.746094 130.207031 L 181.746094 118.699219 L 183.183594 118.699219 C 183.84375 118.699219 184.5 118.632812 185.148438 118.503906 C 185.796875 118.375 186.425781 118.183594 187.035156 117.933594 C 187.648438 117.679688 188.226562 117.371094 188.777344 117.003906 C 189.328125 116.632812 189.835938 116.21875 190.304688 115.75 C 190.769531 115.28125 191.1875 114.773438 191.554688 114.222656 C 191.921875 113.675781 192.234375 113.09375 192.484375 112.484375 C 192.738281 111.871094 192.929688 111.242188 193.058594 110.59375 C 193.1875 109.945312 193.253906 109.292969 193.253906 108.628906 C 193.253906 107.96875 193.1875 107.3125 193.058594 106.664062 C 192.929688 106.015625 192.738281 105.386719 192.484375 104.777344 C 192.234375 104.167969 191.921875 103.585938 191.554688 103.035156 C 191.1875 102.488281 190.769531 101.976562 190.304688 101.511719 C 189.835938 101.042969 189.328125 100.625 188.777344 100.257812 C 188.226562 99.890625 187.648438 99.582031 187.035156 99.328125 C 186.425781 99.074219 185.796875 98.882812 185.148438 98.753906 C 184.5 98.625 183.84375 98.5625 183.183594 98.5625 L 181.746094 98.5625 L 181.746094 87.054688 C 181.746094 86.671875 181.671875 86.304688 181.527344 85.953125 C 181.378906 85.601562 181.171875 85.289062 180.902344 85.019531 C 180.632812 84.75 180.320312 84.542969 179.96875 84.398438 C 179.617188 84.25 179.25 84.179688 178.867188 84.179688 Z M 183.183594 104.316406 C 183.46875 104.316406 183.746094 104.34375 184.027344 104.398438 C 184.304688 104.453125 184.574219 104.535156 184.835938 104.644531 C 185.097656 104.75 185.34375 104.886719 185.582031 105.042969 C 185.816406 105.199219 186.035156 105.378906 186.234375 105.578125 C 186.433594 105.777344 186.613281 105.996094 186.773438 106.234375 C 186.929688 106.46875 187.0625 106.71875 187.171875 106.980469 C 187.277344 107.242188 187.359375 107.511719 187.417969 107.789062 C 187.472656 108.066406 187.5 108.347656 187.5 108.628906 C 187.5 108.914062 187.472656 109.195312 187.417969 109.472656 C 187.359375 109.75 187.277344 110.019531 187.171875 110.28125 C 187.0625 110.542969 186.929688 110.792969 186.773438 111.027344 C 186.613281 111.261719 186.433594 111.480469 186.234375 111.679688 C 186.035156 111.882812 185.816406 112.0625 185.582031 112.21875 C 185.34375 112.375 185.097656 112.507812 184.835938 112.617188 C 184.574219 112.726562 184.304688 112.808594 184.027344 112.863281 C 183.746094 112.917969 183.46875 112.945312 183.183594 112.945312 L 178.867188 112.945312 C 178.488281 112.945312 178.121094 113.019531 177.769531 113.164062 C 177.414062 113.308594 177.105469 113.519531 176.835938 113.789062 C 176.566406 114.058594 176.355469 114.367188 176.210938 114.722656 C 176.066406 115.074219 175.992188 115.441406 175.992188 115.820312 L 175.992188 127.328125 L 167.363281 127.328125 L 167.363281 125.890625 C 167.363281 125.230469 167.296875 124.574219 167.167969 123.925781 C 167.039062 123.277344 166.847656 122.648438 166.59375 122.039062 C 166.34375 121.425781 166.03125 120.847656 165.664062 120.296875 C 165.296875 119.746094 164.878906 119.238281 164.414062 118.769531 C 163.945312 118.304688 163.4375 117.886719 162.886719 117.519531 C 162.335938 117.152344 161.757812 116.839844 161.144531 116.589844 C 160.535156 116.335938 159.90625 116.144531 159.257812 116.015625 C 158.609375 115.886719 157.953125 115.820312 157.292969 115.820312 C 156.632812 115.820312 155.976562 115.886719 155.328125 116.015625 C 154.679688 116.144531 154.050781 116.335938 153.441406 116.589844 C 152.828125 116.839844 152.25 117.152344 151.699219 117.519531 C 151.148438 117.886719 150.640625 118.304688 150.171875 118.769531 C 149.707031 119.238281 149.289062 119.746094 148.921875 120.296875 C 148.554688 120.847656 148.242188 121.425781 147.992188 122.039062 C 147.738281 122.648438 147.546875 123.277344 147.417969 123.925781 C 147.289062 124.574219 147.222656 125.230469 147.222656 125.890625 L 147.222656 127.328125 L 138.59375 127.328125 L 138.59375 89.929688 L 175.992188 89.929688 L 175.992188 101.4375 C 175.992188 101.820312 176.066406 102.1875 176.210938 102.539062 C 176.355469 102.890625 176.566406 103.203125 176.835938 103.472656 C 177.105469 103.742188 177.414062 103.949219 177.769531 104.097656 C 178.121094 104.242188 178.488281 104.316406 178.867188 104.316406 Z M 183.183594 104.316406 " fill-opacity="1" fill-rule="nonzero"/><path fill="#004aad" d="M 132.839844 190.617188 C 132.839844 191 132.914062 191.367188 133.058594 191.71875 C 133.207031 192.070312 133.414062 192.382812 133.683594 192.652344 C 133.953125 192.921875 134.265625 193.128906 134.617188 193.277344 C 134.96875 193.421875 135.335938 193.496094 135.71875 193.496094 L 178.867188 193.496094 C 179.25 193.496094 179.617188 193.421875 179.96875 193.277344 C 180.320312 193.128906 180.632812 192.921875 180.902344 192.652344 C 181.171875 192.382812 181.378906 192.070312 181.527344 191.71875 C 181.671875 191.367188 181.746094 191 181.746094 190.617188 L 181.746094 176.234375 C 181.746094 175.851562 181.671875 175.484375 181.527344 175.132812 C 181.378906 174.78125 181.171875 174.46875 180.902344 174.199219 C 180.632812 173.929688 180.320312 173.722656 179.96875 173.578125 C 179.617188 173.429688 179.25 173.355469 178.867188 173.355469 L 174.554688 173.355469 C 174.269531 173.355469 173.988281 173.328125 173.710938 173.273438 C 173.433594 173.21875 173.164062 173.136719 172.902344 173.027344 C 172.640625 172.921875 172.390625 172.789062 172.15625 172.628906 C 171.921875 172.472656 171.703125 172.292969 171.503906 172.09375 C 171.300781 171.894531 171.121094 171.675781 170.964844 171.4375 C 170.808594 171.203125 170.675781 170.957031 170.566406 170.695312 C 170.457031 170.433594 170.375 170.160156 170.320312 169.882812 C 170.265625 169.605469 170.238281 169.324219 170.238281 169.042969 C 170.238281 168.757812 170.265625 168.476562 170.320312 168.199219 C 170.375 167.921875 170.457031 167.652344 170.566406 167.390625 C 170.675781 167.128906 170.808594 166.878906 170.964844 166.644531 C 171.121094 166.410156 171.300781 166.191406 171.503906 165.992188 C 171.703125 165.789062 171.921875 165.613281 172.15625 165.453125 C 172.390625 165.296875 172.640625 165.164062 172.902344 165.054688 C 173.164062 164.945312 173.433594 164.863281 173.710938 164.808594 C 173.988281 164.753906 174.269531 164.726562 174.554688 164.726562 L 178.867188 164.726562 C 179.25 164.726562 179.617188 164.652344 179.96875 164.507812 C 180.320312 164.363281 180.632812 164.152344 180.902344 163.882812 C 181.171875 163.613281 181.378906 163.304688 181.527344 162.949219 C 181.671875 162.597656 181.746094 162.230469 181.746094 161.851562 L 181.746094 147.464844 C 181.746094 147.085938 181.671875 146.71875 181.527344 146.367188 C 181.378906 146.011719 181.171875 145.703125 180.902344 145.433594 C 180.632812 145.164062 180.320312 144.953125 179.96875 144.808594 C 179.617188 144.664062 179.25 144.589844 178.867188 144.589844 L 167.363281 144.589844 L 167.363281 143.152344 C 167.363281 142.488281 167.296875 141.835938 167.167969 141.1875 C 167.039062 140.539062 166.847656 139.910156 166.59375 139.296875 C 166.34375 138.6875 166.03125 138.105469 165.664062 137.558594 C 165.296875 137.007812 164.878906 136.5 164.414062 136.03125 C 163.945312 135.5625 163.4375 135.148438 162.886719 134.78125 C 162.335938 134.414062 161.757812 134.101562 161.144531 133.847656 C 160.535156 133.597656 159.90625 133.40625 159.257812 133.277344 C 158.609375 133.148438 157.953125 133.082031 157.292969 133.082031 C 156.632812 133.082031 155.976562 133.148438 155.328125 133.277344 C 154.679688 133.40625 154.050781 133.597656 153.441406 133.847656 C 152.828125 134.101562 152.25 134.414062 151.699219 134.78125 C 151.148438 135.148438 150.640625 135.5625 150.171875 136.03125 C 149.707031 136.5 149.289062 137.007812 148.921875 137.558594 C 148.554688 138.105469 148.242188 138.6875 147.992188 139.296875 C 147.738281 139.910156 147.546875 140.539062 147.417969 141.1875 C 147.289062 141.835938 147.222656 142.488281 147.222656 143.152344 L 147.222656 144.589844 L 135.71875 144.589844 C 135.335938 144.589844 134.96875 144.664062 134.617188 144.808594 C 134.265625 144.953125 133.953125 145.164062 133.683594 145.433594 C 133.414062 145.703125 133.207031 146.011719 133.058594 146.367188 C 132.914062 146.71875 132.839844 147.085938 132.839844 147.464844 Z M 138.59375 150.34375 L 150.101562 150.34375 C 150.484375 150.34375 150.847656 150.269531 151.203125 150.125 C 151.554688 149.976562 151.867188 149.769531 152.136719 149.5 C 152.40625 149.230469 152.613281 148.917969 152.757812 148.566406 C 152.90625 148.214844 152.976562 147.847656 152.976562 147.464844 L 152.976562 143.152344 C 152.976562 142.867188 153.003906 142.585938 153.0625 142.308594 C 153.117188 142.03125 153.199219 141.761719 153.304688 141.5 C 153.414062 141.238281 153.546875 140.988281 153.707031 140.753906 C 153.863281 140.519531 154.042969 140.300781 154.242188 140.101562 C 154.441406 139.898438 154.660156 139.722656 154.894531 139.5625 C 155.132812 139.40625 155.378906 139.273438 155.640625 139.164062 C 155.902344 139.054688 156.171875 138.972656 156.449219 138.917969 C 156.730469 138.863281 157.007812 138.835938 157.292969 138.835938 C 157.578125 138.835938 157.855469 138.863281 158.136719 138.917969 C 158.414062 138.972656 158.683594 139.054688 158.945312 139.164062 C 159.207031 139.273438 159.453125 139.40625 159.691406 139.5625 C 159.925781 139.722656 160.144531 139.898438 160.34375 140.101562 C 160.542969 140.300781 160.722656 140.519531 160.882812 140.753906 C 161.039062 140.988281 161.171875 141.238281 161.28125 141.5 C 161.386719 141.761719 161.46875 142.03125 161.523438 142.308594 C 161.582031 142.585938 161.609375 142.867188 161.609375 143.152344 L 161.609375 147.464844 C 161.609375 147.847656 161.679688 148.214844 161.828125 148.566406 C 161.972656 148.917969 162.179688 149.230469 162.449219 149.5 C 162.71875 149.769531 163.03125 149.976562 163.382812 150.125 C 163.738281 150.269531 164.101562 150.34375 164.484375 150.34375 L 175.992188 150.34375 L 175.992188 158.972656 L 174.554688 158.972656 C 173.890625 158.972656 173.238281 159.039062 172.589844 159.167969 C 171.941406 159.296875 171.3125 159.488281 170.699219 159.738281 C 170.089844 159.992188 169.507812 160.304688 168.960938 160.671875 C 168.410156 161.039062 167.902344 161.453125 167.433594 161.921875 C 166.964844 162.390625 166.550781 162.898438 166.183594 163.449219 C 165.816406 163.996094 165.503906 164.578125 165.25 165.1875 C 165 165.800781 164.808594 166.429688 164.679688 167.078125 C 164.550781 167.726562 164.484375 168.382812 164.484375 169.042969 C 164.484375 169.703125 164.550781 170.359375 164.679688 171.007812 C 164.808594 171.65625 165 172.285156 165.25 172.894531 C 165.503906 173.507812 165.816406 174.085938 166.183594 174.636719 C 166.550781 175.1875 166.964844 175.695312 167.433594 176.160156 C 167.902344 176.628906 168.410156 177.046875 168.960938 177.414062 C 169.507812 177.78125 170.089844 178.089844 170.699219 178.34375 C 171.3125 178.597656 171.941406 178.789062 172.589844 178.917969 C 173.238281 179.046875 173.890625 179.109375 174.554688 179.109375 L 175.992188 179.109375 L 175.992188 187.742188 L 138.59375 187.742188 Z M 138.59375 150.34375 " fill-opacity="1" fill-rule="nonzero"/><path fill="#004aad" d="M 196.128906 193.496094 L 239.28125 193.496094 C 239.660156 193.496094 240.027344 193.421875 240.382812 193.277344 C 240.734375 193.128906 241.046875 192.921875 241.316406 192.652344 C 241.585938 192.382812 241.792969 192.070312 241.9375 191.71875 C 242.085938 191.367188 242.15625 191 242.15625 190.617188 L 242.15625 147.464844 C 242.15625 147.085938 242.085938 146.71875 241.9375 146.367188 C 241.792969 146.011719 241.585938 145.703125 241.316406 145.433594 C 241.046875 145.164062 240.734375 144.953125 240.382812 144.808594 C 240.027344 144.664062 239.660156 144.589844 239.28125 144.589844 L 224.898438 144.589844 C 224.515625 144.589844 224.148438 144.664062 223.796875 144.808594 C 223.445312 144.953125 223.132812 145.164062 222.863281 145.433594 C 222.59375 145.703125 222.386719 146.011719 222.238281 146.367188 C 222.09375 146.71875 222.019531 147.085938 222.019531 147.464844 L 222.019531 151.78125 C 222.019531 152.066406 221.992188 152.34375 221.9375 152.625 C 221.882812 152.902344 221.800781 153.171875 221.691406 153.433594 C 221.582031 153.695312 221.449219 153.941406 221.292969 154.179688 C 221.136719 154.414062 220.957031 154.632812 220.757812 154.832031 C 220.554688 155.03125 220.335938 155.210938 220.101562 155.371094 C 219.867188 155.527344 219.617188 155.660156 219.355469 155.769531 C 219.09375 155.875 218.824219 155.957031 218.546875 156.015625 C 218.269531 156.070312 217.988281 156.097656 217.703125 156.097656 C 217.421875 156.097656 217.140625 156.070312 216.863281 156.015625 C 216.585938 155.957031 216.316406 155.875 216.054688 155.769531 C 215.792969 155.660156 215.542969 155.527344 215.308594 155.371094 C 215.070312 155.210938 214.855469 155.03125 214.652344 154.832031 C 214.453125 154.632812 214.273438 154.414062 214.117188 154.179688 C 213.960938 153.941406 213.828125 153.695312 213.71875 153.433594 C 213.609375 153.171875 213.527344 152.902344 213.472656 152.625 C 213.417969 152.34375 213.390625 152.066406 213.390625 151.78125 L 213.390625 147.464844 C 213.390625 147.085938 213.316406 146.71875 213.171875 146.367188 C 213.023438 146.011719 212.816406 145.703125 212.546875 145.433594 C 212.277344 145.164062 211.964844 144.953125 211.613281 144.808594 C 211.261719 144.664062 210.894531 144.589844 210.511719 144.589844 L 196.128906 144.589844 C 195.746094 144.589844 195.378906 144.664062 195.027344 144.808594 C 194.675781 144.953125 194.363281 145.164062 194.09375 145.433594 C 193.824219 145.703125 193.617188 146.011719 193.472656 146.367188 C 193.324219 146.71875 193.253906 147.085938 193.253906 147.464844 L 193.253906 158.972656 L 191.8125 158.972656 C 191.152344 158.972656 190.5 159.039062 189.851562 159.167969 C 189.203125 159.296875 188.570312 159.488281 187.960938 159.738281 C 187.351562 159.992188 186.769531 160.304688 186.21875 160.671875 C 185.671875 161.039062 185.160156 161.453125 184.695312 161.921875 C 184.226562 162.390625 183.808594 162.898438 183.441406 163.449219 C 183.074219 163.996094 182.765625 164.578125 182.511719 165.1875 C 182.257812 165.800781 182.066406 166.429688 181.9375 167.078125 C 181.808594 167.726562 181.746094 168.382812 181.746094 169.042969 C 181.746094 169.703125 181.808594 170.359375 181.9375 171.007812 C 182.066406 171.65625 182.257812 172.285156 182.511719 172.894531 C 182.765625 173.507812 183.074219 174.085938 183.441406 174.636719 C 183.808594 175.1875 184.226562 175.695312 184.695312 176.160156 C 185.160156 176.628906 185.671875 177.046875 186.21875 177.414062 C 186.769531 177.78125 187.351562 178.089844 187.960938 178.34375 C 188.570312 178.597656 189.203125 178.789062 189.851562 178.917969 C 190.5 179.046875 191.152344 179.109375 191.8125 179.109375 L 193.253906 179.109375 L 193.253906 190.617188 C 193.253906 191 193.324219 191.367188 193.472656 191.71875 C 193.617188 192.070312 193.824219 192.382812 194.09375 192.652344 C 194.363281 192.921875 194.675781 193.128906 195.027344 193.277344 C 195.378906 193.421875 195.746094 193.496094 196.128906 193.496094 Z M 191.8125 173.355469 C 191.53125 173.355469 191.25 173.328125 190.972656 173.273438 C 190.695312 173.21875 190.425781 173.136719 190.164062 173.027344 C 189.902344 172.921875 189.652344 172.789062 189.417969 172.628906 C 189.179688 172.472656 188.964844 172.292969 188.761719 172.09375 C 188.5625 171.894531 188.382812 171.675781 188.226562 171.4375 C 188.070312 171.203125 187.9375 170.957031 187.828125 170.695312 C 187.71875 170.433594 187.636719 170.160156 187.582031 169.882812 C 187.527344 169.605469 187.5 169.324219 187.5 169.042969 C 187.5 168.757812 187.527344 168.476562 187.582031 168.199219 C 187.636719 167.921875 187.71875 167.652344 187.828125 167.390625 C 187.9375 167.128906 188.070312 166.878906 188.226562 166.644531 C 188.382812 166.410156 188.5625 166.191406 188.761719 165.992188 C 188.964844 165.789062 189.179688 165.613281 189.417969 165.453125 C 189.652344 165.296875 189.902344 165.164062 190.164062 165.054688 C 190.425781 164.945312 190.695312 164.863281 190.972656 164.808594 C 191.25 164.753906 191.53125 164.726562 191.8125 164.726562 L 196.128906 164.726562 C 196.511719 164.726562 196.878906 164.652344 197.230469 164.507812 C 197.582031 164.363281 197.894531 164.152344 198.164062 163.882812 C 198.433594 163.613281 198.640625 163.304688 198.785156 162.949219 C 198.933594 162.597656 199.007812 162.230469 199.007812 161.851562 L 199.007812 150.34375 L 207.636719 150.34375 L 207.636719 151.78125 C 207.636719 152.441406 207.699219 153.097656 207.828125 153.746094 C 207.957031 154.394531 208.148438 155.023438 208.402344 155.632812 C 208.65625 156.246094 208.964844 156.824219 209.332031 157.375 C 209.699219 157.925781 210.117188 158.433594 210.585938 158.902344 C 211.054688 159.367188 211.5625 159.785156 212.109375 160.152344 C 212.660156 160.519531 213.242188 160.832031 213.851562 161.082031 C 214.460938 161.335938 215.09375 161.527344 215.742188 161.65625 C 216.390625 161.785156 217.042969 161.851562 217.703125 161.851562 C 218.367188 161.851562 219.019531 161.785156 219.667969 161.65625 C 220.316406 161.527344 220.945312 161.335938 221.558594 161.082031 C 222.167969 160.832031 222.75 160.519531 223.296875 160.152344 C 223.847656 159.785156 224.355469 159.367188 224.824219 158.902344 C 225.292969 158.433594 225.710938 157.925781 226.078125 157.375 C 226.445312 156.824219 226.753906 156.246094 227.007812 155.632812 C 227.261719 155.023438 227.449219 154.394531 227.582031 153.746094 C 227.710938 153.097656 227.773438 152.441406 227.773438 151.78125 L 227.773438 150.34375 L 236.402344 150.34375 L 236.402344 187.742188 L 199.007812 187.742188 L 199.007812 176.234375 C 199.007812 175.851562 198.933594 175.484375 198.785156 175.132812 C 198.640625 174.78125 198.433594 174.46875 198.164062 174.199219 C 197.894531 173.929688 197.582031 173.722656 197.230469 173.578125 C 196.878906 173.429688 196.511719 173.355469 196.128906 173.355469 Z M 191.8125 173.355469 " fill-opacity="1" fill-rule="nonzero"/><path fill="#004aad" d="M 200.445312 112.945312 L 196.128906 112.945312 C 195.746094 112.945312 195.378906 113.019531 195.027344 113.164062 C 194.675781 113.308594 194.363281 113.519531 194.09375 113.789062 C 193.824219 114.058594 193.617188 114.367188 193.472656 114.722656 C 193.324219 115.074219 193.253906 115.441406 193.253906 115.820312 L 193.253906 130.207031 C 193.253906 130.585938 193.324219 130.953125 193.472656 131.308594 C 193.617188 131.660156 193.824219 131.96875 194.09375 132.238281 C 194.363281 132.511719 194.675781 132.71875 195.027344 132.863281 C 195.378906 133.007812 195.746094 133.082031 196.128906 133.082031 L 207.636719 133.082031 L 207.636719 134.519531 C 207.636719 135.183594 207.699219 135.835938 207.828125 136.484375 C 207.957031 137.132812 208.148438 137.761719 208.402344 138.375 C 208.65625 138.984375 208.964844 139.566406 209.332031 140.113281 C 209.699219 140.664062 210.117188 141.171875 210.585938 141.640625 C 211.054688 142.109375 211.5625 142.527344 212.109375 142.894531 C 212.660156 143.261719 213.242188 143.570312 213.851562 143.824219 C 214.460938 144.078125 215.09375 144.265625 215.742188 144.394531 C 216.390625 144.523438 217.042969 144.589844 217.703125 144.589844 C 218.367188 144.589844 219.019531 144.523438 219.667969 144.394531 C 220.316406 144.265625 220.945312 144.078125 221.558594 143.824219 C 222.167969 143.570312 222.75 143.261719 223.296875 142.894531 C 223.847656 142.527344 224.355469 142.109375 224.824219 141.640625 C 225.292969 141.171875 225.710938 140.664062 226.078125 140.113281 C 226.445312 139.566406 226.753906 138.984375 227.007812 138.375 C 227.261719 137.761719 227.449219 137.132812 227.582031 136.484375 C 227.710938 135.835938 227.773438 135.183594 227.773438 134.519531 L 227.773438 133.082031 L 239.28125 133.082031 C 239.660156 133.082031 240.027344 133.007812 240.382812 132.863281 C 240.734375 132.71875 241.046875 132.511719 241.316406 132.238281 C 241.585938 131.96875 241.792969 131.660156 241.9375 131.308594 C 242.085938 130.953125 242.15625 130.585938 242.15625 130.207031 L 242.15625 87.054688 C 242.15625 86.671875 242.085938 86.304688 241.9375 85.953125 C 241.792969 85.601562 241.585938 85.289062 241.316406 85.019531 C 241.046875 84.75 240.734375 84.542969 240.382812 84.398438 C 240.027344 84.25 239.660156 84.179688 239.28125 84.179688 L 196.128906 84.179688 C 195.746094 84.179688 195.378906 84.25 195.027344 84.398438 C 194.675781 84.542969 194.363281 84.75 194.09375 85.019531 C 193.824219 85.289062 193.617188 85.601562 193.472656 85.953125 C 193.324219 86.304688 193.253906 86.671875 193.253906 87.054688 L 193.253906 101.4375 C 193.253906 101.820312 193.324219 102.1875 193.472656 102.539062 C 193.617188 102.890625 193.824219 103.203125 194.09375 103.472656 C 194.363281 103.742188 194.675781 103.949219 195.027344 104.097656 C 195.378906 104.242188 195.746094 104.316406 196.128906 104.316406 L 200.445312 104.316406 C 200.726562 104.316406 201.007812 104.34375 201.285156 104.398438 C 201.5625 104.453125 201.832031 104.535156 202.09375 104.644531 C 202.359375 104.75 202.605469 104.886719 202.839844 105.042969 C 203.078125 105.199219 203.296875 105.378906 203.496094 105.578125 C 203.695312 105.777344 203.875 105.996094 204.03125 106.234375 C 204.191406 106.46875 204.324219 106.71875 204.429688 106.980469 C 204.539062 107.242188 204.621094 107.511719 204.675781 107.789062 C 204.730469 108.066406 204.757812 108.347656 204.757812 108.628906 C 204.757812 108.914062 204.730469 109.195312 204.675781 109.472656 C 204.621094 109.75 204.539062 110.019531 204.429688 110.28125 C 204.324219 110.542969 204.191406 110.792969 204.03125 111.027344 C 203.875 111.261719 203.695312 111.480469 203.496094 111.679688 C 203.296875 111.882812 203.078125 112.0625 202.839844 112.21875 C 202.605469 112.375 202.359375 112.507812 202.09375 112.617188 C 201.832031 112.726562 201.5625 112.808594 201.285156 112.863281 C 201.007812 112.917969 200.726562 112.945312 200.445312 112.945312 Z M 200.445312 98.5625 L 199.007812 98.5625 L 199.007812 89.929688 L 236.402344 89.929688 L 236.402344 127.328125 L 224.898438 127.328125 C 224.515625 127.328125 224.148438 127.402344 223.796875 127.546875 C 223.445312 127.695312 223.132812 127.902344 222.863281 128.171875 C 222.59375 128.441406 222.386719 128.753906 222.238281 129.105469 C 222.09375 129.457031 222.019531 129.824219 222.019531 130.207031 L 222.019531 134.519531 C 222.019531 134.804688 221.992188 135.085938 221.9375 135.363281 C 221.882812 135.640625 221.800781 135.910156 221.691406 136.171875 C 221.582031 136.433594 221.449219 136.683594 221.292969 136.917969 C 221.136719 137.152344 220.957031 137.371094 220.757812 137.570312 C 220.554688 137.773438 220.335938 137.953125 220.101562 138.109375 C 219.867188 138.265625 219.617188 138.398438 219.355469 138.507812 C 219.09375 138.617188 218.824219 138.699219 218.546875 138.753906 C 218.269531 138.808594 217.988281 138.835938 217.703125 138.835938 C 217.421875 138.835938 217.140625 138.808594 216.863281 138.753906 C 216.585938 138.699219 216.316406 138.617188 216.054688 138.507812 C 215.792969 138.398438 215.542969 138.265625 215.308594 138.109375 C 215.070312 137.953125 214.855469 137.773438 214.652344 137.570312 C 214.453125 137.371094 214.273438 137.152344 214.117188 136.917969 C 213.960938 136.683594 213.828125 136.433594 213.71875 136.171875 C 213.609375 135.910156 213.527344 135.640625 213.472656 135.363281 C 213.417969 135.085938 213.390625 134.804688 213.390625 134.519531 L 213.390625 130.207031 C 213.390625 129.824219 213.316406 129.457031 213.171875 129.105469 C 213.023438 128.753906 212.816406 128.441406 212.546875 128.171875 C 212.277344 127.902344 211.964844 127.695312 211.613281 127.546875 C 211.261719 127.402344 210.894531 127.328125 210.511719 127.328125 L 199.007812 127.328125 L 199.007812 118.699219 L 200.445312 118.699219 C 201.105469 118.699219 201.761719 118.632812 202.410156 118.503906 C 203.058594 118.375 203.6875 118.183594 204.296875 117.933594 C 204.910156 117.679688 205.488281 117.371094 206.039062 117.003906 C 206.589844 116.632812 207.097656 116.21875 207.5625 115.75 C 208.03125 115.28125 208.449219 114.773438 208.816406 114.222656 C 209.183594 113.675781 209.492188 113.09375 209.746094 112.484375 C 210 111.871094 210.191406 111.242188 210.320312 110.59375 C 210.449219 109.945312 210.511719 109.292969 210.511719 108.628906 C 210.511719 107.96875 210.449219 107.3125 210.320312 106.664062 C 210.191406 106.015625 210 105.386719 209.746094 104.777344 C 209.492188 104.167969 209.183594 103.585938 208.816406 103.035156 C 208.449219 102.488281 208.03125 101.976562 207.5625 101.511719 C 207.097656 101.042969 206.589844 100.625 206.039062 100.257812 C 205.488281 99.890625 204.910156 99.582031 204.296875 99.328125 C 203.6875 99.074219 203.058594 98.882812 202.410156 98.753906 C 201.761719 98.625 201.105469 98.5625 200.445312 98.5625 Z M 200.445312 98.5625 " fill-opacity="1" fill-rule="nonzero"/><g clip-path="url(#68b7342d89)"><path fill="#004aad" d="M 270.925781 52.535156 L 247.910156 52.535156 C 247.53125 52.535156 247.164062 52.605469 246.808594 52.753906 C 246.457031 52.898438 246.144531 53.105469 245.875 53.375 C 245.605469 53.644531 245.398438 53.957031 245.253906 54.308594 C 245.105469 54.660156 245.035156 55.027344 245.035156 55.410156 L 245.035156 64.039062 L 198.601562 64.039062 C 198.4375 63.433594 198.226562 62.847656 197.964844 62.277344 C 197.703125 61.707031 197.398438 61.160156 197.050781 60.640625 C 196.699219 60.117188 196.308594 59.628906 195.878906 59.171875 C 195.449219 58.714844 194.984375 58.296875 194.488281 57.917969 C 193.988281 57.535156 193.464844 57.199219 192.910156 56.902344 C 192.355469 56.609375 191.78125 56.359375 191.1875 56.160156 C 190.59375 55.957031 189.988281 55.804688 189.367188 55.703125 C 188.75 55.601562 188.125 55.550781 187.5 55.550781 C 186.871094 55.550781 186.25 55.601562 185.628906 55.703125 C 185.011719 55.804688 184.402344 55.957031 183.808594 56.160156 C 183.214844 56.359375 182.640625 56.609375 182.089844 56.902344 C 181.535156 57.199219 181.007812 57.535156 180.511719 57.917969 C 180.011719 58.296875 179.546875 58.714844 179.117188 59.171875 C 178.6875 59.628906 178.296875 60.117188 177.949219 60.640625 C 177.597656 61.160156 177.292969 61.707031 177.03125 62.277344 C 176.773438 62.847656 176.558594 63.433594 176.394531 64.039062 L 129.964844 64.039062 L 129.964844 55.410156 C 129.964844 55.027344 129.890625 54.660156 129.746094 54.308594 C 129.597656 53.957031 129.390625 53.644531 129.121094 53.375 C 128.851562 53.105469 128.539062 52.898438 128.1875 52.753906 C 127.835938 52.605469 127.46875 52.535156 127.085938 52.535156 L 104.074219 52.535156 C 103.691406 52.535156 103.324219 52.605469 102.972656 52.753906 C 102.621094 52.898438 102.308594 53.105469 102.039062 53.375 C 101.769531 53.644531 101.5625 53.957031 101.414062 54.308594 C 101.269531 54.660156 101.195312 55.027344 101.195312 55.410156 L 101.195312 78.425781 C 101.195312 78.804688 101.269531 79.171875 101.414062 79.523438 C 101.5625 79.878906 101.769531 80.1875 102.039062 80.457031 C 102.308594 80.726562 102.621094 80.9375 102.972656 81.082031 C 103.324219 81.226562 103.691406 81.300781 104.074219 81.300781 L 127.085938 81.300781 C 127.46875 81.300781 127.835938 81.226562 128.1875 81.082031 C 128.539062 80.9375 128.851562 80.726562 129.121094 80.457031 C 129.390625 80.1875 129.597656 79.878906 129.746094 79.523438 C 129.890625 79.171875 129.964844 78.804688 129.964844 78.425781 L 129.964844 69.792969 L 176.394531 69.792969 C 176.558594 70.398438 176.773438 70.988281 177.03125 71.558594 C 177.292969 72.128906 177.597656 72.675781 177.949219 73.195312 C 178.296875 73.714844 178.6875 74.203125 179.117188 74.660156 C 179.546875 75.117188 180.011719 75.535156 180.511719 75.917969 C 181.007812 76.296875 181.535156 76.636719 182.089844 76.933594 C 182.640625 77.226562 183.214844 77.476562 183.808594 77.675781 C 184.402344 77.878906 185.011719 78.027344 185.628906 78.128906 C 186.25 78.230469 186.871094 78.285156 187.5 78.285156 C 188.125 78.285156 188.75 78.230469 189.367188 78.128906 C 189.988281 78.027344 190.59375 77.878906 191.1875 77.675781 C 191.78125 77.476562 192.355469 77.226562 192.910156 76.933594 C 193.464844 76.636719 193.988281 76.296875 194.488281 75.917969 C 194.984375 75.535156 195.449219 75.117188 195.878906 74.660156 C 196.308594 74.203125 196.699219 73.714844 197.050781 73.195312 C 197.398438 72.675781 197.703125 72.128906 197.964844 71.558594 C 198.226562 70.988281 198.4375 70.398438 198.601562 69.792969 L 245.035156 69.792969 L 245.035156 78.425781 C 245.035156 78.804688 245.105469 79.171875 245.253906 79.523438 C 245.398438 79.878906 245.605469 80.1875 245.875 80.457031 C 246.144531 80.726562 246.457031 80.9375 246.808594 81.082031 C 247.164062 81.226562 247.53125 81.300781 247.910156 81.300781 L 270.925781 81.300781 C 271.304688 81.300781 271.671875 81.226562 272.027344 81.082031 C 272.378906 80.9375 272.6875 80.726562 272.960938 80.457031 C 273.230469 80.1875 273.4375 79.878906 273.582031 79.523438 C 273.730469 79.171875 273.800781 78.804688 273.800781 78.425781 L 273.800781 55.410156 C 273.800781 55.027344 273.730469 54.660156 273.582031 54.308594 C 273.4375 53.957031 273.230469 53.644531 272.960938 53.375 C 272.6875 53.105469 272.378906 52.898438 272.027344 52.753906 C 271.671875 52.605469 271.304688 52.535156 270.925781 52.535156 Z M 124.210938 75.546875 L 106.949219 75.546875 L 106.949219 58.285156 L 124.210938 58.285156 Z M 187.5 72.671875 C 187.121094 72.671875 186.746094 72.632812 186.375 72.558594 C 186.007812 72.488281 185.644531 72.378906 185.296875 72.234375 C 184.949219 72.089844 184.617188 71.910156 184.300781 71.699219 C 183.988281 71.492188 183.699219 71.253906 183.429688 70.984375 C 183.164062 70.71875 182.925781 70.429688 182.714844 70.113281 C 182.503906 69.800781 182.328125 69.46875 182.183594 69.117188 C 182.039062 68.769531 181.929688 68.410156 181.855469 68.039062 C 181.78125 67.667969 181.746094 67.296875 181.746094 66.917969 C 181.746094 66.539062 181.78125 66.164062 181.855469 65.792969 C 181.929688 65.425781 182.039062 65.0625 182.183594 64.714844 C 182.328125 64.367188 182.503906 64.035156 182.714844 63.722656 C 182.925781 63.40625 183.164062 63.117188 183.429688 62.847656 C 183.699219 62.582031 183.988281 62.34375 184.300781 62.132812 C 184.617188 61.921875 184.949219 61.746094 185.296875 61.601562 C 185.644531 61.457031 186.007812 61.347656 186.375 61.273438 C 186.746094 61.199219 187.121094 61.164062 187.5 61.164062 C 187.875 61.164062 188.25 61.199219 188.621094 61.273438 C 188.992188 61.347656 189.351562 61.457031 189.699219 61.601562 C 190.050781 61.746094 190.382812 61.921875 190.695312 62.132812 C 191.007812 62.34375 191.300781 62.582031 191.566406 62.847656 C 191.835938 63.117188 192.074219 63.40625 192.28125 63.722656 C 192.492188 64.035156 192.671875 64.367188 192.816406 64.714844 C 192.960938 65.0625 193.066406 65.425781 193.140625 65.792969 C 193.214844 66.164062 193.253906 66.539062 193.253906 66.917969 C 193.253906 67.296875 193.214844 67.667969 193.140625 68.039062 C 193.066406 68.410156 192.960938 68.769531 192.816406 69.117188 C 192.671875 69.46875 192.492188 69.800781 192.28125 70.113281 C 192.074219 70.429688 191.835938 70.71875 191.566406 70.984375 C 191.300781 71.253906 191.007812 71.492188 190.695312 71.699219 C 190.382812 71.910156 190.050781 72.089844 189.699219 72.234375 C 189.351562 72.378906 188.992188 72.488281 188.621094 72.558594 C 188.25 72.632812 187.875 72.671875 187.5 72.671875 Z M 268.046875 75.546875 L 250.789062 75.546875 L 250.789062 58.285156 L 268.046875 58.285156 Z M 268.046875 75.546875 " fill-opacity="1" fill-rule="nonzero"/></g><g clip-path="url(#2cece53786)"><path fill="#004aad" d="M 270.925781 196.371094 L 247.910156 196.371094 C 247.53125 196.371094 247.164062 196.445312 246.808594 196.589844 C 246.457031 196.734375 246.144531 196.945312 245.875 197.214844 C 245.605469 197.484375 245.398438 197.792969 245.253906 198.148438 C 245.105469 198.5 245.035156 198.867188 245.035156 199.246094 L 245.035156 207.878906 L 198.601562 207.878906 C 198.4375 207.273438 198.226562 206.683594 197.964844 206.113281 C 197.703125 205.542969 197.398438 205 197.050781 204.476562 C 196.699219 203.957031 196.308594 203.46875 195.878906 203.011719 C 195.449219 202.554688 194.984375 202.136719 194.488281 201.753906 C 193.988281 201.375 193.464844 201.035156 192.910156 200.742188 C 192.355469 200.445312 191.78125 200.199219 191.1875 199.996094 C 190.59375 199.796875 189.988281 199.644531 189.367188 199.542969 C 188.75 199.441406 188.125 199.390625 187.5 199.390625 C 186.871094 199.390625 186.25 199.441406 185.628906 199.542969 C 185.011719 199.644531 184.402344 199.796875 183.808594 199.996094 C 183.214844 200.199219 182.640625 200.445312 182.089844 200.742188 C 181.535156 201.035156 181.007812 201.375 180.511719 201.753906 C 180.011719 202.136719 179.546875 202.554688 179.117188 203.011719 C 178.6875 203.46875 178.296875 203.957031 177.949219 204.476562 C 177.597656 205 177.292969 205.542969 177.03125 206.113281 C 176.773438 206.683594 176.558594 207.273438 176.394531 207.878906 L 129.964844 207.878906 L 129.964844 199.246094 C 129.964844 198.867188 129.890625 198.5 129.746094 198.148438 C 129.597656 197.792969 129.390625 197.484375 129.121094 197.214844 C 128.851562 196.945312 128.539062 196.734375 128.1875 196.589844 C 127.835938 196.445312 127.46875 196.371094 127.085938 196.371094 L 104.074219 196.371094 C 103.691406 196.371094 103.324219 196.445312 102.972656 196.589844 C 102.621094 196.734375 102.308594 196.945312 102.039062 197.214844 C 101.769531 197.484375 101.5625 197.792969 101.414062 198.148438 C 101.269531 198.5 101.195312 198.867188 101.195312 199.246094 L 101.195312 222.261719 C 101.195312 222.644531 101.269531 223.011719 101.414062 223.363281 C 101.5625 223.714844 101.769531 224.027344 102.039062 224.296875 C 102.308594 224.566406 102.621094 224.773438 102.972656 224.917969 C 103.324219 225.066406 103.691406 225.140625 104.074219 225.140625 L 127.085938 225.140625 C 127.46875 225.140625 127.835938 225.066406 128.1875 224.917969 C 128.539062 224.773438 128.851562 224.566406 129.121094 224.296875 C 129.390625 224.027344 129.597656 223.714844 129.746094 223.363281 C 129.890625 223.011719 129.964844 222.644531 129.964844 222.261719 L 129.964844 213.632812 L 176.394531 213.632812 C 176.558594 214.238281 176.773438 214.824219 177.03125 215.394531 C 177.292969 215.964844 177.597656 216.511719 177.949219 217.03125 C 178.296875 217.554688 178.6875 218.042969 179.117188 218.5 C 179.546875 218.957031 180.011719 219.375 180.511719 219.753906 C 181.007812 220.136719 181.535156 220.476562 182.089844 220.769531 C 182.640625 221.066406 183.214844 221.3125 183.808594 221.515625 C 184.402344 221.714844 185.011719 221.867188 185.628906 221.96875 C 186.25 222.070312 186.871094 222.121094 187.5 222.121094 C 188.125 222.121094 188.75 222.070312 189.367188 221.96875 C 189.988281 221.867188 190.59375 221.714844 191.1875 221.515625 C 191.78125 221.3125 192.355469 221.066406 192.910156 220.769531 C 193.464844 220.476562 193.988281 220.136719 194.488281 219.753906 C 194.984375 219.375 195.449219 218.957031 195.878906 218.5 C 196.308594 218.042969 196.699219 217.554688 197.050781 217.03125 C 197.398438 216.511719 197.703125 215.964844 197.964844 215.394531 C 198.226562 214.824219 198.4375 214.238281 198.601562 213.632812 L 245.035156 213.632812 L 245.035156 222.261719 C 245.035156 222.644531 245.105469 223.011719 245.253906 223.363281 C 245.398438 223.714844 245.605469 224.027344 245.875 224.296875 C 246.144531 224.566406 246.457031 224.773438 246.808594 224.917969 C 247.164062 225.066406 247.53125 225.140625 247.910156 225.140625 L 270.925781 225.140625 C 271.304688 225.140625 271.671875 225.066406 272.027344 224.917969 C 272.378906 224.773438 272.6875 224.566406 272.960938 224.296875 C 273.230469 224.027344 273.4375 223.714844 273.582031 223.363281 C 273.730469 223.011719 273.800781 222.644531 273.800781 222.261719 L 273.800781 199.246094 C 273.800781 198.867188 273.730469 198.5 273.582031 198.148438 C 273.4375 197.792969 273.230469 197.484375 272.960938 197.214844 C 272.6875 196.945312 272.378906 196.734375 272.027344 196.589844 C 271.671875 196.445312 271.304688 196.371094 270.925781 196.371094 Z M 124.210938 219.386719 L 106.949219 219.386719 L 106.949219 202.125 L 124.210938 202.125 Z M 187.5 216.507812 C 187.121094 216.507812 186.746094 216.472656 186.375 216.398438 C 186.007812 216.324219 185.644531 216.214844 185.296875 216.070312 C 184.949219 215.925781 184.617188 215.75 184.300781 215.539062 C 183.988281 215.328125 183.699219 215.089844 183.429688 214.824219 C 183.164062 214.554688 182.925781 214.265625 182.714844 213.953125 C 182.503906 213.636719 182.328125 213.304688 182.183594 212.957031 C 182.039062 212.609375 181.929688 212.246094 181.855469 211.878906 C 181.78125 211.507812 181.746094 211.132812 181.746094 210.753906 C 181.746094 210.378906 181.78125 210.003906 181.855469 209.632812 C 181.929688 209.261719 182.039062 208.902344 182.183594 208.554688 C 182.328125 208.203125 182.503906 207.871094 182.714844 207.558594 C 182.925781 207.246094 183.164062 206.953125 183.429688 206.6875 C 183.699219 206.417969 183.988281 206.179688 184.300781 205.972656 C 184.617188 205.761719 184.949219 205.585938 185.296875 205.441406 C 185.644531 205.296875 186.007812 205.1875 186.375 205.113281 C 186.746094 205.039062 187.121094 205 187.5 205 C 187.875 205 188.25 205.039062 188.621094 205.113281 C 188.992188 205.1875 189.351562 205.296875 189.699219 205.441406 C 190.050781 205.585938 190.382812 205.761719 190.695312 205.972656 C 191.007812 206.179688 191.300781 206.417969 191.566406 206.6875 C 191.835938 206.953125 192.074219 207.246094 192.28125 207.558594 C 192.492188 207.871094 192.671875 208.203125 192.816406 208.554688 C 192.960938 208.902344 193.066406 209.261719 193.140625 209.632812 C 193.214844 210.003906 193.253906 210.378906 193.253906 210.753906 C 193.253906 211.132812 193.214844 211.507812 193.140625 211.878906 C 193.066406 212.246094 192.960938 212.609375 192.816406 212.957031 C 192.671875 213.304688 192.492188 213.636719 192.28125 213.953125 C 192.074219 214.265625 191.835938 214.554688 191.566406 214.824219 C 191.300781 215.089844 191.007812 215.328125 190.695312 215.539062 C 190.382812 215.75 190.050781 215.925781 189.699219 216.070312 C 189.351562 216.214844 188.992188 216.324219 188.621094 216.398438 C 188.25 216.472656 187.875 216.507812 187.5 216.507812 Z M 268.046875 219.386719 L 250.789062 219.386719 L 250.789062 202.125 L 268.046875 202.125 Z M 268.046875 219.386719 " fill-opacity="1" fill-rule="nonzero"/></g><path fill="#004aad" d="M 262.292969 127.328125 L 247.910156 127.328125 L 247.910156 133.082031 L 265.171875 133.082031 C 265.554688 133.082031 265.917969 133.007812 266.273438 132.863281 C 266.625 132.71875 266.9375 132.511719 267.207031 132.238281 C 267.476562 131.96875 267.683594 131.660156 267.828125 131.308594 C 267.976562 130.953125 268.046875 130.585938 268.046875 130.207031 L 268.046875 98.5625 L 262.292969 98.5625 Z M 262.292969 127.328125 " fill-opacity="1" fill-rule="nonzero"/><path fill="#004aad" d="M 112.703125 150.34375 L 127.085938 150.34375 L 127.085938 144.589844 L 109.828125 144.589844 C 109.445312 144.589844 109.078125 144.664062 108.726562 144.808594 C 108.375 144.953125 108.0625 145.164062 107.792969 145.433594 C 107.523438 145.703125 107.316406 146.011719 107.167969 146.367188 C 107.023438 146.71875 106.949219 147.085938 106.949219 147.464844 L 106.949219 179.109375 L 112.703125 179.109375 Z M 112.703125 150.34375 " fill-opacity="1" fill-rule="nonzero"/><path fill="#004aad" d="M 106.949219 184.863281 L 112.703125 184.863281 L 112.703125 190.617188 L 106.949219 190.617188 Z M 106.949219 184.863281 " fill-opacity="1" fill-rule="nonzero"/><path fill="#004aad" d="M 262.292969 87.054688 L 268.046875 87.054688 L 268.046875 92.808594 L 262.292969 92.808594 Z M 262.292969 87.054688 " fill-opacity="1" fill-rule="nonzero"/><g fill="#000000" fill-opacity="1"><g transform="translate(30.041018, 300.557879)"><g><path d="M 3.484375 -28.015625 L 5.875 -28.015625 L 5.875 0 L 3.484375 0 Z M 21.25 -28.015625 L 21.25 -25.828125 L 6.9375 -25.828125 L 6.9375 -28.015625 Z M 20.953125 -15.453125 L 20.953125 -13.265625 L 6.9375 -13.265625 L 6.9375 -15.453125 Z M 21.25 -2.1875 L 21.25 0 L 6.9375 0 L 6.9375 -2.1875 Z M 21.25 -2.1875 "/></g></g></g><g fill="#000000" fill-opacity="1"><g transform="translate(53.729016, 300.557879)"><g><path d="M 12.140625 -20.796875 C 13.867188 -20.796875 15.21875 -20.28125 16.1875 -19.25 C 17.15625 -18.226562 17.640625 -16.863281 17.640625 -15.15625 L 17.640625 0 L 15.453125 0 L 15.453125 -14.609375 C 15.421875 -15.898438 15.125 -16.894531 14.5625 -17.59375 C 14.007812 -18.289062 13.0625 -18.640625 11.71875 -18.640625 C 10.875 -18.640625 10 -18.421875 9.09375 -17.984375 C 8.1875 -17.554688 7.394531 -17.019531 6.71875 -16.375 L 6.71875 -19.0625 C 7.394531 -19.539062 8.179688 -19.945312 9.078125 -20.28125 C 9.972656 -20.625 10.992188 -20.796875 12.140625 -20.796875 Z M 29.40625 -16.96875 C 29.425781 -16.882812 29.460938 -16.691406 29.515625 -16.390625 C 29.578125 -16.097656 29.609375 -15.757812 29.609375 -15.375 L 29.609375 0 L 27.421875 0 L 27.421875 -14.203125 C 27.421875 -15.628906 27.15625 -16.722656 26.625 -17.484375 C 26.09375 -18.253906 25.113281 -18.640625 23.6875 -18.640625 C 22.820312 -18.640625 21.988281 -18.460938 21.1875 -18.109375 C 20.382812 -17.765625 19.59375 -17.269531 18.8125 -16.625 C 18.8125 -16.625 18.789062 -16.75 18.75 -17 C 18.707031 -17.257812 18.644531 -17.515625 18.5625 -17.765625 C 18.445312 -18.078125 18.34375 -18.320312 18.25 -18.5 C 18.15625 -18.6875 18.109375 -18.78125 18.109375 -18.78125 C 18.890625 -19.394531 19.800781 -19.882812 20.84375 -20.25 C 21.894531 -20.613281 22.984375 -20.796875 24.109375 -20.796875 C 25.671875 -20.796875 26.878906 -20.398438 27.734375 -19.609375 C 28.585938 -18.828125 29.144531 -17.945312 29.40625 -16.96875 Z M 3.484375 -20.28125 L 5.671875 -20.28125 L 5.671875 0 L 3.484375 0 Z M 3.484375 -20.28125 "/></g></g></g><g fill="#000000" fill-opacity="1"><g transform="translate(86.783008, 300.557879)"><g/></g></g><g fill="#000000" fill-opacity="1"><g transform="translate(97.661005, 300.557879)"><g><path d="M 5.875 -28.015625 L 5.875 0 L 3.484375 0 L 3.484375 -28.015625 Z M 13.734375 -13.8125 C 14.910156 -13.8125 15.957031 -14.097656 16.875 -14.671875 C 17.800781 -15.253906 18.53125 -16 19.0625 -16.90625 C 19.59375 -17.8125 19.859375 -18.785156 19.859375 -19.828125 C 19.859375 -21.734375 19.285156 -23.207031 18.140625 -24.25 C 16.992188 -25.300781 15.523438 -25.828125 13.734375 -25.828125 L 6.890625 -25.828125 L 6.890625 -28.015625 L 13.984375 -28.015625 C 15.722656 -28.015625 17.210938 -27.660156 18.453125 -26.953125 C 19.703125 -26.253906 20.671875 -25.289062 21.359375 -24.0625 C 22.046875 -22.832031 22.390625 -21.421875 22.390625 -19.828125 C 22.390625 -18.453125 22.035156 -17.132812 21.328125 -15.875 C 20.628906 -14.613281 19.65625 -13.59375 18.40625 -12.8125 C 17.164062 -12.03125 15.691406 -11.640625 13.984375 -11.640625 L 6.890625 -11.640625 L 6.890625 -13.8125 Z M 13.734375 -13.8125 "/></g></g></g><g fill="#000000" fill-opacity="1"><g transform="translate(121.643002, 300.557879)"><g><path d="M 5.59375 -28.015625 L 5.59375 0 L 3.40625 0 L 3.40625 -28.015625 Z M 5.59375 -28.015625 "/></g></g></g><g fill="#000000" fill-opacity="1"><g transform="translate(130.630997, 300.557879)"><g><path d="M 16.296875 -14.203125 C 16.296875 -15.710938 15.785156 -16.859375 14.765625 -17.640625 C 13.742188 -18.421875 12.488281 -18.8125 11 -18.8125 C 9.71875 -18.8125 8.578125 -18.535156 7.578125 -17.984375 C 6.585938 -17.441406 5.644531 -16.710938 4.75 -15.796875 L 3.28125 -17.390625 C 4.34375 -18.535156 5.488281 -19.390625 6.71875 -19.953125 C 7.945312 -20.515625 9.40625 -20.796875 11.09375 -20.796875 C 12.457031 -20.796875 13.695312 -20.570312 14.8125 -20.125 C 15.9375 -19.675781 16.828125 -18.96875 17.484375 -18 C 18.148438 -17.03125 18.484375 -15.789062 18.484375 -14.28125 L 18.484375 0 L 16.296875 0 Z M 10.15625 -1.546875 C 11 -1.546875 11.894531 -1.753906 12.84375 -2.171875 C 13.800781 -2.597656 14.601562 -3.078125 15.25 -3.609375 L 15.25 -1.140625 C 14.4375 -0.515625 13.546875 -0.0859375 12.578125 0.140625 C 11.609375 0.378906 10.550781 0.5 9.40625 0.5 C 8.257812 0.5 7.140625 0.242188 6.046875 -0.265625 C 4.953125 -0.785156 4.054688 -1.550781 3.359375 -2.5625 C 2.660156 -3.570312 2.3125 -4.804688 2.3125 -6.265625 C 2.3125 -7.742188 2.675781 -9 3.40625 -10.03125 C 4.132812 -11.070312 5.097656 -11.863281 6.296875 -12.40625 C 7.503906 -12.957031 8.789062 -13.234375 10.15625 -13.234375 C 11.332031 -13.234375 12.347656 -13.101562 13.203125 -12.84375 C 14.054688 -12.59375 14.738281 -12.34375 15.25 -12.09375 L 15.25 -9.484375 C 14.488281 -9.992188 13.648438 -10.394531 12.734375 -10.6875 C 11.828125 -10.976562 10.96875 -11.125 10.15625 -11.125 C 8.507812 -11.125 7.175781 -10.671875 6.15625 -9.765625 C 5.132812 -8.859375 4.625 -7.675781 4.625 -6.21875 C 4.625 -4.789062 5.132812 -3.65625 6.15625 -2.8125 C 7.175781 -1.96875 8.507812 -1.546875 10.15625 -1.546875 Z M 10.15625 -1.546875 "/></g></g></g><g fill="#000000" fill-opacity="1"><g transform="translate(152.512991, 300.557879)"><g><path d="M 12.5625 -20.796875 C 13.820312 -20.796875 14.953125 -20.5625 15.953125 -20.09375 C 16.960938 -19.632812 17.769531 -18.984375 18.375 -18.140625 C 18.976562 -17.304688 19.28125 -16.3125 19.28125 -15.15625 L 19.28125 0 L 17.015625 0 L 17.015625 -14.609375 C 16.984375 -15.898438 16.53125 -16.859375 15.65625 -17.484375 C 14.789062 -18.117188 13.617188 -18.4375 12.140625 -18.4375 C 11.296875 -18.4375 10.347656 -18.238281 9.296875 -17.84375 C 8.253906 -17.457031 7.394531 -16.941406 6.71875 -16.296875 L 6.71875 -19.0625 C 7.394531 -19.539062 8.25 -19.945312 9.28125 -20.28125 C 10.320312 -20.625 11.414062 -20.796875 12.5625 -20.796875 Z M 3.40625 -20.28125 L 5.671875 -20.28125 L 5.671875 0 L 3.40625 0 Z M 3.40625 -20.28125 "/></g></g></g><g fill="#000000" fill-opacity="1"><g transform="translate(175.192982, 300.557879)"><g><path d="M 19.359375 -11.171875 C 19.359375 -12.296875 19.113281 -13.429688 18.625 -14.578125 C 18.132812 -15.722656 17.382812 -16.707031 16.375 -17.53125 C 15.375 -18.363281 14.085938 -18.820312 12.515625 -18.90625 L 12.515625 -20.796875 C 14.472656 -20.703125 16.125 -20.160156 17.46875 -19.171875 C 18.8125 -18.179688 19.832031 -16.882812 20.53125 -15.28125 C 21.238281 -13.6875 21.59375 -11.9375 21.59375 -10.03125 L 21.59375 -9.453125 L 5.71875 -9.453125 C 5.71875 -9.453125 5.703125 -9.613281 5.671875 -9.9375 C 5.640625 -10.257812 5.65625 -10.671875 5.71875 -11.171875 Z M 2.359375 -10.15625 C 2.359375 -12.0625 2.738281 -13.789062 3.5 -15.34375 C 4.269531 -16.90625 5.34375 -18.175781 6.71875 -19.15625 C 8.09375 -20.132812 9.675781 -20.664062 11.46875 -20.75 L 11.46875 -18.90625 C 9.957031 -18.820312 8.6875 -18.359375 7.65625 -17.515625 C 6.632812 -16.671875 5.863281 -15.625 5.34375 -14.375 C 4.832031 -13.132812 4.566406 -11.804688 4.546875 -10.390625 C 4.535156 -8.984375 4.78125 -7.632812 5.28125 -6.34375 C 5.789062 -5.050781 6.554688 -3.960938 7.578125 -3.078125 C 8.597656 -2.203125 9.894531 -1.664062 11.46875 -1.46875 L 11.46875 0.46875 C 9.675781 0.289062 8.09375 -0.253906 6.71875 -1.171875 C 5.34375 -2.097656 4.269531 -3.335938 3.5 -4.890625 C 2.738281 -6.441406 2.359375 -8.195312 2.359375 -10.15625 Z M 20.328125 -2.765625 C 19.316406 -1.734375 18.175781 -0.9375 16.90625 -0.375 C 15.632812 0.1875 14.171875 0.476562 12.515625 0.5 L 12.515625 -1.390625 L 12.5625 -1.390625 C 13.84375 -1.390625 15.050781 -1.625 16.1875 -2.09375 C 17.320312 -2.570312 18.320312 -3.273438 19.1875 -4.203125 Z M 20.328125 -2.765625 "/></g></g></g><g fill="#000000" fill-opacity="1"><g transform="translate(199.00698, 300.557879)"><g><path d="M 5.59375 -21.375 L 0 -21.375 L 0 -23.390625 L 5.59375 -23.390625 Z M 0.078125 8.234375 C -0.816406 8.234375 -1.578125 8.101562 -2.203125 7.84375 C -2.835938 7.59375 -3.460938 7.203125 -4.078125 6.671875 L -3.109375 4.875 C -2.742188 5.238281 -2.316406 5.5625 -1.828125 5.84375 C -1.335938 6.125 -0.769531 6.265625 -0.125 6.265625 C 0.851562 6.265625 1.6875 5.96875 2.375 5.375 C 3.0625 4.789062 3.40625 3.851562 3.40625 2.5625 L 3.40625 -20.28125 L 5.59375 -20.28125 L 5.59375 2.5625 C 5.59375 4.4375 5.109375 5.847656 4.140625 6.796875 C 3.171875 7.753906 1.816406 8.234375 0.078125 8.234375 Z M 0.078125 8.234375 "/></g></g></g><g fill="#000000" fill-opacity="1"><g transform="translate(207.994975, 300.557879)"><g><path d="M 16.296875 -14.203125 C 16.296875 -15.710938 15.785156 -16.859375 14.765625 -17.640625 C 13.742188 -18.421875 12.488281 -18.8125 11 -18.8125 C 9.71875 -18.8125 8.578125 -18.535156 7.578125 -17.984375 C 6.585938 -17.441406 5.644531 -16.710938 4.75 -15.796875 L 3.28125 -17.390625 C 4.34375 -18.535156 5.488281 -19.390625 6.71875 -19.953125 C 7.945312 -20.515625 9.40625 -20.796875 11.09375 -20.796875 C 12.457031 -20.796875 13.695312 -20.570312 14.8125 -20.125 C 15.9375 -19.675781 16.828125 -18.96875 17.484375 -18 C 18.148438 -17.03125 18.484375 -15.789062 18.484375 -14.28125 L 18.484375 0 L 16.296875 0 Z M 10.15625 -1.546875 C 11 -1.546875 11.894531 -1.753906 12.84375 -2.171875 C 13.800781 -2.597656 14.601562 -3.078125 15.25 -3.609375 L 15.25 -1.140625 C 14.4375 -0.515625 13.546875 -0.0859375 12.578125 0.140625 C 11.609375 0.378906 10.550781 0.5 9.40625 0.5 C 8.257812 0.5 7.140625 0.242188 6.046875 -0.265625 C 4.953125 -0.785156 4.054688 -1.550781 3.359375 -2.5625 C 2.660156 -3.570312 2.3125 -4.804688 2.3125 -6.265625 C 2.3125 -7.742188 2.675781 -9 3.40625 -10.03125 C 4.132812 -11.070312 5.097656 -11.863281 6.296875 -12.40625 C 7.503906 -12.957031 8.789062 -13.234375 10.15625 -13.234375 C 11.332031 -13.234375 12.347656 -13.101562 13.203125 -12.84375 C 14.054688 -12.59375 14.738281 -12.34375 15.25 -12.09375 L 15.25 -9.484375 C 14.488281 -9.992188 13.648438 -10.394531 12.734375 -10.6875 C 11.828125 -10.976562 10.96875 -11.125 10.15625 -11.125 C 8.507812 -11.125 7.175781 -10.671875 6.15625 -9.765625 C 5.132812 -8.859375 4.625 -7.675781 4.625 -6.21875 C 4.625 -4.789062 5.132812 -3.65625 6.15625 -2.8125 C 7.175781 -1.96875 8.507812 -1.546875 10.15625 -1.546875 Z M 10.15625 -1.546875 "/></g></g></g><g fill="#000000" fill-opacity="1"><g transform="translate(229.876958, 300.557879)"><g><path d="M 12.140625 -20.796875 C 13.867188 -20.796875 15.21875 -20.28125 16.1875 -19.25 C 17.15625 -18.226562 17.640625 -16.863281 17.640625 -15.15625 L 17.640625 0 L 15.453125 0 L 15.453125 -14.609375 C 15.421875 -15.898438 15.125 -16.894531 14.5625 -17.59375 C 14.007812 -18.289062 13.0625 -18.640625 11.71875 -18.640625 C 10.875 -18.640625 10 -18.421875 9.09375 -17.984375 C 8.1875 -17.554688 7.394531 -17.019531 6.71875 -16.375 L 6.71875 -19.0625 C 7.394531 -19.539062 8.179688 -19.945312 9.078125 -20.28125 C 9.972656 -20.625 10.992188 -20.796875 12.140625 -20.796875 Z M 29.40625 -16.96875 C 29.425781 -16.882812 29.460938 -16.691406 29.515625 -16.390625 C 29.578125 -16.097656 29.609375 -15.757812 29.609375 -15.375 L 29.609375 0 L 27.421875 0 L 27.421875 -14.203125 C 27.421875 -15.628906 27.15625 -16.722656 26.625 -17.484375 C 26.09375 -18.253906 25.113281 -18.640625 23.6875 -18.640625 C 22.820312 -18.640625 21.988281 -18.460938 21.1875 -18.109375 C 20.382812 -17.765625 19.59375 -17.269531 18.8125 -16.625 C 18.8125 -16.625 18.789062 -16.75 18.75 -17 C 18.707031 -17.257812 18.644531 -17.515625 18.5625 -17.765625 C 18.445312 -18.078125 18.34375 -18.320312 18.25 -18.5 C 18.15625 -18.6875 18.109375 -18.78125 18.109375 -18.78125 C 18.890625 -19.394531 19.800781 -19.882812 20.84375 -20.25 C 21.894531 -20.613281 22.984375 -20.796875 24.109375 -20.796875 C 25.671875 -20.796875 26.878906 -20.398438 27.734375 -19.609375 C 28.585938 -18.828125 29.144531 -17.945312 29.40625 -16.96875 Z M 3.484375 -20.28125 L 5.671875 -20.28125 L 5.671875 0 L 3.484375 0 Z M 3.484375 -20.28125 "/></g></g></g><g fill="#000000" fill-opacity="1"><g transform="translate(262.930949, 300.557879)"><g><path d="M 19.359375 -11.171875 C 19.359375 -12.296875 19.113281 -13.429688 18.625 -14.578125 C 18.132812 -15.722656 17.382812 -16.707031 16.375 -17.53125 C 15.375 -18.363281 14.085938 -18.820312 12.515625 -18.90625 L 12.515625 -20.796875 C 14.472656 -20.703125 16.125 -20.160156 17.46875 -19.171875 C 18.8125 -18.179688 19.832031 -16.882812 20.53125 -15.28125 C 21.238281 -13.6875 21.59375 -11.9375 21.59375 -10.03125 L 21.59375 -9.453125 L 5.71875 -9.453125 C 5.71875 -9.453125 5.703125 -9.613281 5.671875 -9.9375 C 5.640625 -10.257812 5.65625 -10.671875 5.71875 -11.171875 Z M 2.359375 -10.15625 C 2.359375 -12.0625 2.738281 -13.789062 3.5 -15.34375 C 4.269531 -16.90625 5.34375 -18.175781 6.71875 -19.15625 C 8.09375 -20.132812 9.675781 -20.664062 11.46875 -20.75 L 11.46875 -18.90625 C 9.957031 -18.820312 8.6875 -18.359375 7.65625 -17.515625 C 6.632812 -16.671875 5.863281 -15.625 5.34375 -14.375 C 4.832031 -13.132812 4.566406 -11.804688 4.546875 -10.390625 C 4.535156 -8.984375 4.78125 -7.632812 5.28125 -6.34375 C 5.789062 -5.050781 6.554688 -3.960938 7.578125 -3.078125 C 8.597656 -2.203125 9.894531 -1.664062 11.46875 -1.46875 L 11.46875 0.46875 C 9.675781 0.289062 8.09375 -0.253906 6.71875 -1.171875 C 5.34375 -2.097656 4.269531 -3.335938 3.5 -4.890625 C 2.738281 -6.441406 2.359375 -8.195312 2.359375 -10.15625 Z M 20.328125 -2.765625 C 19.316406 -1.734375 18.175781 -0.9375 16.90625 -0.375 C 15.632812 0.1875 14.171875 0.476562 12.515625 0.5 L 12.515625 -1.390625 L 12.5625 -1.390625 C 13.84375 -1.390625 15.050781 -1.625 16.1875 -2.09375 C 17.320312 -2.570312 18.320312 -3.273438 19.1875 -4.203125 Z M 20.328125 -2.765625 "/></g></g></g><g fill="#000000" fill-opacity="1"><g transform="translate(286.744936, 300.557879)"><g><path d="M 12.5625 -20.796875 C 13.820312 -20.796875 14.953125 -20.5625 15.953125 -20.09375 C 16.960938 -19.632812 17.769531 -18.984375 18.375 -18.140625 C 18.976562 -17.304688 19.28125 -16.3125 19.28125 -15.15625 L 19.28125 0 L 17.015625 0 L 17.015625 -14.609375 C 16.984375 -15.898438 16.53125 -16.859375 15.65625 -17.484375 C 14.789062 -18.117188 13.617188 -18.4375 12.140625 -18.4375 C 11.296875 -18.4375 10.347656 -18.238281 9.296875 -17.84375 C 8.253906 -17.457031 7.394531 -16.941406 6.71875 -16.296875 L 6.71875 -19.0625 C 7.394531 -19.539062 8.25 -19.945312 9.28125 -20.28125 C 10.320312 -20.625 11.414062 -20.796875 12.5625 -20.796875 Z M 3.40625 -20.28125 L 5.671875 -20.28125 L 5.671875 0 L 3.40625 0 Z M 3.40625 -20.28125 "/></g></g></g><g fill="#000000" fill-opacity="1"><g transform="translate(309.424927, 300.557879)"><g><path d="M 3.828125 -20.28125 L 3.828125 -25.828125 L 6.046875 -25.828125 L 6.046875 -20.28125 L 10.15625 -20.28125 L 10.15625 -18.359375 L 0.46875 -18.359375 L 0.46875 -20.28125 Z M 7.8125 0.5 C 6.46875 0.5 5.46875 0.109375 4.8125 -0.671875 C 4.15625 -1.453125 3.828125 -2.53125 3.828125 -3.90625 L 3.828125 -17.296875 L 6.046875 -17.296875 L 6.046875 -4.234375 C 6.046875 -3.429688 6.21875 -2.769531 6.5625 -2.25 C 6.914062 -1.726562 7.441406 -1.46875 8.140625 -1.46875 C 8.617188 -1.46875 9.0625 -1.566406 9.46875 -1.765625 C 9.875 -1.960938 10.191406 -2.1875 10.421875 -2.4375 L 11.25 -0.75 C 10.863281 -0.382812 10.40625 -0.0859375 9.875 0.140625 C 9.34375 0.378906 8.65625 0.5 7.8125 0.5 Z M 7.8125 0.5 "/></g></g></g><g fill="#000000" fill-opacity="1"><g transform="translate(320.974921, 300.557879)"><g><path d="M 2.265625 -10.15625 C 2.265625 -12.0625 2.632812 -13.796875 3.375 -15.359375 C 4.125 -16.929688 5.175781 -18.207031 6.53125 -19.1875 C 7.882812 -20.164062 9.5 -20.703125 11.375 -20.796875 L 11.375 -18.78125 C 9.925781 -18.6875 8.695312 -18.226562 7.6875 -17.40625 C 6.675781 -16.582031 5.90625 -15.53125 5.375 -14.25 C 4.84375 -12.976562 4.578125 -11.613281 4.578125 -10.15625 C 4.578125 -8.707031 4.84375 -7.34375 5.375 -6.0625 C 5.90625 -4.789062 6.675781 -3.734375 7.6875 -2.890625 C 8.695312 -2.054688 9.925781 -1.582031 11.375 -1.46875 L 11.375 0.5 C 9.5 0.394531 7.882812 -0.140625 6.53125 -1.109375 C 5.175781 -2.078125 4.125 -3.351562 3.375 -4.9375 C 2.632812 -6.519531 2.265625 -8.257812 2.265625 -10.15625 Z M 21.75 -10.15625 C 21.75 -8.257812 21.378906 -6.507812 20.640625 -4.90625 C 19.898438 -3.3125 18.835938 -2.03125 17.453125 -1.0625 C 16.066406 -0.101562 14.421875 0.414062 12.515625 0.5 L 12.515625 -1.46875 C 13.992188 -1.550781 15.242188 -2.007812 16.265625 -2.84375 C 17.296875 -3.6875 18.078125 -4.753906 18.609375 -6.046875 C 19.140625 -7.335938 19.40625 -8.707031 19.40625 -10.15625 C 19.40625 -11.613281 19.140625 -12.976562 18.609375 -14.25 C 18.078125 -15.53125 17.296875 -16.585938 16.265625 -17.421875 C 15.242188 -18.265625 13.992188 -18.726562 12.515625 -18.8125 L 12.515625 -20.796875 C 14.421875 -20.703125 16.066406 -20.171875 17.453125 -19.203125 C 18.835938 -18.242188 19.898438 -16.976562 20.640625 -15.40625 C 21.378906 -13.84375 21.75 -12.09375 21.75 -10.15625 Z M 21.75 -10.15625 "/></g></g></g></svg>