<svg xmlns="http://www.w3.org/2000/svg" xmlns:xlink="http://www.w3.org/1999/xlink" width="50" zoomAndPan="magnify" viewBox="0 0 37.5 37.499999" height="50" preserveAspectRatio="xMidYMid meet" version="1.0"><defs><clipPath id="22b9bf703d"><path d="M 0 0.378906 L 37 0.378906 L 37 36.644531 L 0 36.644531 Z M 0 0.378906 " clip-rule="nonzero"/></clipPath></defs><g clip-path="url(#22b9bf703d)"><path fill="#24292f" d="M 18.449219 0.378906 C 8.25 0.378906 0.00390625 8.6875 0.00390625 18.96875 C 0.00390625 27.191406 5.285156 34.148438 12.617188 36.609375 C 13.53125 36.792969 13.867188 36.207031 13.867188 35.714844 C 13.867188 35.285156 13.835938 33.808594 13.835938 32.269531 C 8.707031 33.378906 7.636719 30.050781 7.636719 30.050781 C 6.8125 27.898438 5.59375 27.34375 5.59375 27.34375 C 3.914062 26.203125 5.714844 26.203125 5.714844 26.203125 C 7.578125 26.328125 8.554688 28.113281 8.554688 28.113281 C 10.203125 30.945312 12.859375 30.144531 13.929688 29.652344 C 14.082031 28.453125 14.570312 27.621094 15.089844 27.160156 C 10.996094 26.726562 6.691406 25.128906 6.691406 17.984375 C 6.691406 15.953125 7.425781 14.292969 8.585938 13 C 8.402344 12.535156 7.761719 10.628906 8.769531 8.074219 C 8.769531 8.074219 10.324219 7.582031 13.835938 9.980469 C 15.347656 9.574219 16.882812 9.367188 18.449219 9.367188 C 20.003906 9.367188 21.59375 9.582031 23.058594 9.980469 C 26.570312 7.582031 28.128906 8.074219 28.128906 8.074219 C 29.136719 10.628906 28.496094 12.535156 28.3125 13 C 29.503906 14.292969 30.203125 15.953125 30.203125 17.984375 C 30.203125 25.128906 25.898438 26.695312 21.777344 27.160156 C 22.449219 27.742188 23.027344 28.851562 23.027344 30.605469 C 23.027344 33.101562 23 35.101562 23 35.714844 C 23 36.207031 23.335938 36.792969 24.25 36.609375 C 31.578125 34.144531 36.863281 27.191406 36.863281 18.96875 C 36.890625 8.6875 28.617188 0.378906 18.449219 0.378906 Z M 18.449219 0.378906 " fill-opacity="1" fill-rule="evenodd"/></g></svg>