<svg xmlns="http://www.w3.org/2000/svg" xmlns:xlink="http://www.w3.org/1999/xlink" width="50" zoomAndPan="magnify" viewBox="0 0 37.5 37.499999" height="50" preserveAspectRatio="xMidYMid meet" version="1.0"><defs><clipPath id="5b523a110f"><path d="M 0 2.882812 L 32 2.882812 L 32 33.96875 L 0 33.96875 Z M 0 2.882812 " clip-rule="nonzero"/></clipPath><clipPath id="9f74c2ae5b"><path d="M 32 29 L 37 29 L 37 33.96875 L 32 33.96875 Z M 32 29 " clip-rule="nonzero"/></clipPath></defs><path fill="#0a66c2" d="M 35.023438 31.960938 C 35.191406 31.964844 35.332031 31.90625 35.445312 31.785156 C 35.558594 31.664062 35.613281 31.523438 35.601562 31.359375 C 35.601562 30.929688 35.34375 30.726562 34.8125 30.726562 L 33.949219 30.726562 L 33.949219 32.96875 L 34.273438 32.96875 L 34.273438 31.992188 L 34.671875 31.992188 L 34.679688 32.003906 L 35.296875 32.96875 L 35.644531 32.96875 L 34.980469 31.96875 Z M 34.648438 31.738281 L 34.273438 31.738281 L 34.273438 30.980469 L 34.75 30.980469 C 34.996094 30.980469 35.277344 31.019531 35.277344 31.339844 C 35.277344 31.707031 34.992188 31.738281 34.648438 31.738281 " fill-opacity="1" fill-rule="nonzero"/><g clip-path="url(#5b523a110f)"><path fill="#0a66c2" d="M 26.582031 29.152344 L 21.988281 29.152344 L 21.988281 22 C 21.988281 20.292969 21.960938 18.097656 19.601562 18.097656 C 17.210938 18.097656 16.847656 19.957031 16.847656 21.875 L 16.847656 29.152344 L 12.253906 29.152344 L 12.253906 14.441406 L 16.664062 14.441406 L 16.664062 16.449219 L 16.722656 16.449219 C 17.171875 15.6875 17.789062 15.089844 18.566406 14.664062 C 19.347656 14.238281 20.183594 14.042969 21.070312 14.074219 C 25.722656 14.074219 26.582031 17.121094 26.582031 21.082031 Z M 7.078125 12.429688 C 6.722656 12.429688 6.382812 12.363281 6.058594 12.226562 C 5.730469 12.09375 5.441406 11.902344 5.191406 11.652344 C 4.941406 11.40625 4.75 11.117188 4.613281 10.792969 C 4.480469 10.46875 4.414062 10.128906 4.410156 9.777344 C 4.410156 9.425781 4.480469 9.089844 4.613281 8.765625 C 4.75 8.441406 4.941406 8.152344 5.191406 7.90625 C 5.441406 7.65625 5.730469 7.464844 6.054688 7.328125 C 6.382812 7.195312 6.722656 7.128906 7.074219 7.128906 C 7.429688 7.128906 7.769531 7.195312 8.09375 7.328125 C 8.421875 7.464844 8.710938 7.65625 8.960938 7.902344 C 9.207031 8.152344 9.402344 8.4375 9.535156 8.765625 C 9.671875 9.089844 9.738281 9.425781 9.738281 9.777344 C 9.738281 10.128906 9.671875 10.46875 9.535156 10.792969 C 9.402344 11.117188 9.210938 11.402344 8.960938 11.652344 C 8.710938 11.902344 8.421875 12.09375 8.097656 12.226562 C 7.769531 12.363281 7.429688 12.429688 7.078125 12.429688 M 9.371094 29.152344 L 4.777344 29.152344 L 4.777344 14.441406 L 9.371094 14.441406 Z M 28.867188 2.886719 L 2.46875 2.886719 C 2.171875 2.882812 1.882812 2.9375 1.601562 3.046875 C 1.324219 3.15625 1.078125 3.316406 0.863281 3.527344 C 0.648438 3.734375 0.484375 3.976562 0.367188 4.25 C 0.25 4.523438 0.1875 4.808594 0.183594 5.109375 L 0.183594 31.488281 C 0.1875 31.785156 0.246094 32.074219 0.367188 32.347656 C 0.484375 32.621094 0.648438 32.863281 0.863281 33.070312 C 1.078125 33.28125 1.324219 33.441406 1.601562 33.550781 C 1.882812 33.664062 2.171875 33.714844 2.46875 33.714844 L 28.867188 33.714844 C 29.167969 33.71875 29.457031 33.664062 29.738281 33.550781 C 30.015625 33.441406 30.261719 33.28125 30.480469 33.074219 C 30.695312 32.863281 30.859375 32.625 30.980469 32.347656 C 31.097656 32.074219 31.160156 31.789062 31.164062 31.488281 L 31.164062 5.105469 C 31.160156 4.808594 31.097656 4.519531 30.980469 4.246094 C 30.859375 3.972656 30.695312 3.730469 30.476562 3.523438 C 30.261719 3.3125 30.015625 3.152344 29.738281 3.042969 C 29.457031 2.933594 29.167969 2.878906 28.867188 2.882812 " fill-opacity="1" fill-rule="nonzero"/></g><g clip-path="url(#9f74c2ae5b)"><path fill="#0a66c2" d="M 34.6875 29.726562 C 34.503906 29.730469 34.324219 29.753906 34.144531 29.804688 C 33.964844 29.851562 33.796875 29.921875 33.640625 30.015625 C 33.480469 30.109375 33.335938 30.222656 33.203125 30.351562 C 33.074219 30.484375 32.964844 30.628906 32.875 30.789062 C 32.78125 30.949219 32.714844 31.117188 32.667969 31.296875 C 32.621094 31.472656 32.597656 31.65625 32.597656 31.839844 C 32.597656 32.023438 32.621094 32.203125 32.671875 32.382812 C 32.71875 32.558594 32.789062 32.726562 32.882812 32.886719 C 32.976562 33.046875 33.089844 33.191406 33.21875 33.320312 C 33.351562 33.449219 33.496094 33.558594 33.65625 33.652344 C 33.816406 33.742188 33.984375 33.8125 34.164062 33.859375 C 34.34375 33.90625 34.523438 33.929688 34.710938 33.929688 C 34.894531 33.929688 35.074219 33.90625 35.253906 33.859375 C 35.433594 33.8125 35.601562 33.742188 35.761719 33.652344 C 35.921875 33.558594 36.070312 33.449219 36.199219 33.320312 C 36.332031 33.191406 36.441406 33.046875 36.535156 32.886719 C 36.628906 32.726562 36.699219 32.558594 36.746094 32.382812 C 36.796875 32.203125 36.820312 32.023438 36.820312 31.839844 C 36.824219 31.65625 36.800781 31.472656 36.753906 31.296875 C 36.707031 31.117188 36.636719 30.949219 36.546875 30.789062 C 36.453125 30.628906 36.34375 30.484375 36.214844 30.351562 C 36.085938 30.222656 35.941406 30.109375 35.78125 30.015625 C 35.621094 29.921875 35.453125 29.851562 35.273438 29.804688 C 35.097656 29.753906 34.914062 29.730469 34.730469 29.726562 L 34.6875 29.726562 M 34.6875 33.691406 C 34.445312 33.695312 34.207031 33.652344 33.976562 33.5625 C 33.75 33.472656 33.546875 33.34375 33.371094 33.171875 C 33.195312 33.003906 33.058594 32.804688 32.960938 32.582031 C 32.863281 32.355469 32.808594 32.121094 32.804688 31.878906 C 32.800781 31.632812 32.84375 31.398438 32.933594 31.171875 C 33.027344 30.941406 33.15625 30.742188 33.328125 30.566406 C 33.496094 30.390625 33.695312 30.253906 33.921875 30.15625 C 34.148438 30.058594 34.382812 30.007812 34.628906 30.003906 C 34.875 30 35.109375 30.042969 35.339844 30.132812 C 35.566406 30.222656 35.769531 30.351562 35.945312 30.523438 C 36.121094 30.691406 36.261719 30.890625 36.359375 31.113281 C 36.457031 31.339844 36.507812 31.574219 36.511719 31.816406 C 36.511719 31.828125 36.511719 31.835938 36.511719 31.847656 C 36.515625 32.085938 36.472656 32.316406 36.386719 32.539062 C 36.300781 32.761719 36.171875 32.960938 36.007812 33.132812 C 35.839844 33.308594 35.648438 33.441406 35.429688 33.539062 C 35.207031 33.632812 34.976562 33.683594 34.738281 33.691406 L 34.691406 33.691406 " fill-opacity="1" fill-rule="nonzero"/></g></svg>