<svg xmlns="http://www.w3.org/2000/svg" xmlns:xlink="http://www.w3.org/1999/xlink" width="500" zoomAndPan="magnify" viewBox="0 0 375 374.999991" height="500" preserveAspectRatio="xMidYMid meet" version="1.0"><defs><g/><clipPath id="1e39bd914a"><path d="M 176 15 L 371.53125 15 L 371.53125 211 L 176 211 Z M 176 15 " clip-rule="nonzero"/></clipPath><clipPath id="9fbdfd128d"><path d="M 3.28125 98 L 58 98 L 58 124 L 3.28125 124 Z M 3.28125 98 " clip-rule="nonzero"/></clipPath></defs><path fill="#000000" d="M 299.957031 190.617188 L 299.648438 190.210938 C 297.242188 187.015625 293.878906 187.582031 292.894531 187.839844 C 291.921875 188.09375 288.683594 189.214844 288.121094 193.171875 L 284.542969 218.234375 C 284.488281 218.570312 284.308594 218.851562 284.210938 219.175781 C 290.730469 210.507812 296.050781 200.914062 299.957031 190.617188 Z M 299.957031 190.617188 " fill-opacity="1" fill-rule="nonzero"/><path fill="#000000" d="M 278.164062 223.757812 C 277.863281 223.757812 277.554688 223.738281 277.25 223.691406 L 239.003906 218.222656 C 235.480469 217.71875 233.035156 214.453125 233.535156 210.929688 L 237.117188 185.863281 C 237.683594 181.914062 234.886719 179.921875 234.027344 179.40625 C 233.148438 178.890625 230.078125 177.398438 226.890625 179.800781 L 206.636719 194.988281 C 203.796875 197.113281 199.75 196.546875 197.625 193.699219 L 174.441406 162.769531 C 172.3125 159.929688 172.882812 155.890625 175.730469 153.757812 L 195.972656 138.570312 C 199.164062 136.171875 198.59375 132.789062 198.347656 131.8125 C 198.097656 130.835938 196.96875 127.597656 193.015625 127.035156 L 167.964844 123.453125 C 166.269531 123.207031 164.75 122.308594 163.726562 120.933594 C 162.703125 119.566406 162.257812 117.847656 162.503906 116.160156 L 167.96875 77.894531 C 168.472656 74.367188 171.738281 71.941406 175.261719 72.421875 L 200.3125 76.003906 C 204.226562 76.539062 206.242188 73.777344 206.765625 72.914062 C 207.28125 72.042969 208.773438 68.960938 206.371094 65.761719 L 191.191406 45.507812 C 190.167969 44.144531 189.726562 42.421875 189.96875 40.734375 C 190.214844 39.039062 191.117188 37.519531 192.488281 36.496094 L 196.140625 33.757812 C 190.316406 33.53125 184.417969 33.574219 178.410156 34.238281 C 124.550781 40.191406 81.320312 84.234375 76.226562 138.203125 C 71.917969 183.820312 94.046875 224.652344 129.066406 247.144531 C 139.699219 253.988281 146.511719 265.425781 146.511719 278.085938 L 146.511719 304.125 C 146.511719 314.800781 155.160156 323.453125 165.832031 323.453125 L 217.351562 323.453125 C 228.023438 323.453125 236.671875 314.800781 236.671875 304.125 L 236.671875 278.621094 C 236.671875 265.65625 243.632812 253.957031 254.511719 246.90625 C 264.6875 240.316406 273.742188 232.164062 281.386719 222.808594 C 280.398438 223.382812 279.304688 223.757812 278.164062 223.757812 Z M 198.03125 304.125 L 185.152344 304.125 L 185.152344 284.792969 L 198.03125 284.792969 Z M 185.152344 271.90625 C 185.152344 254.871094 174.777344 239.808594 158.722656 233.503906 C 123.921875 219.871094 101.433594 186.886719 101.433594 149.484375 C 101.433594 118.335938 117.164062 89.808594 143.515625 73.15625 L 150.394531 84.054688 C 127.804688 98.332031 114.3125 122.785156 114.3125 149.484375 C 114.3125 181.546875 133.585938 209.8125 163.421875 221.515625 C 184.449219 229.75 198.03125 249.53125 198.03125 271.90625 Z M 185.152344 271.90625 " fill-opacity="1" fill-rule="nonzero"/><path fill="#000000" d="M 178.710938 375 L 204.472656 375 C 211.574219 375 217.351562 369.21875 217.351562 362.113281 L 217.351562 355.671875 L 165.832031 355.671875 L 165.832031 362.113281 C 165.832031 369.21875 171.609375 375 178.710938 375 Z M 178.710938 375 " fill-opacity="1" fill-rule="nonzero"/><path fill="#000000" d="M 41.773438 226.804688 C 41.773438 207.113281 56.570312 190.84375 75.621094 188.472656 C 73.25 181.40625 71.570312 174.089844 70.511719 166.625 L 69.386719 171.992188 C 68.492188 176.222656 65.566406 179.710938 61.554688 181.308594 C 57.550781 182.898438 53.027344 182.402344 49.472656 179.949219 L 36.089844 170.722656 L 24.359375 182.460938 L 33.578125 195.84375 C 36.035156 199.394531 36.542969 203.917969 34.945312 207.9375 C 33.339844 211.953125 29.859375 214.878906 25.625 215.765625 L 9.578125 219.144531 L 9.578125 234.457031 L 25.632812 237.835938 C 29.859375 238.722656 33.339844 241.648438 34.945312 245.664062 C 36.542969 249.683594 36.035156 254.207031 33.574219 257.765625 L 24.359375 271.140625 L 36.089844 282.878906 L 49.46875 273.652344 C 53.035156 271.191406 57.550781 270.695312 61.5625 272.292969 C 65.566406 273.898438 68.492188 277.378906 69.386719 281.605469 L 72.761719 297.679688 L 88.070312 297.679688 L 91.445312 281.617188 C 92.332031 277.398438 95.25 273.910156 99.261719 272.308594 C 103.28125 270.695312 107.800781 271.203125 111.355469 273.667969 L 124.730469 282.894531 L 138.546875 269.070312 C 136.355469 262.488281 131.875 256.628906 125.570312 252.578125 C 121.707031 250.097656 118.066406 247.378906 114.558594 244.53125 C 108.027344 257.035156 94.992188 265.464844 80.410156 265.464844 C 59.109375 265.464844 41.773438 248.125 41.773438 226.804688 Z M 41.773438 226.804688 " fill-opacity="1" fill-rule="nonzero"/><path fill="#000000" d="M 165.832031 329.898438 L 217.351562 329.898438 L 217.351562 342.785156 L 165.832031 342.785156 Z M 165.832031 329.898438 " fill-opacity="1" fill-rule="nonzero"/><g clip-path="url(#1e39bd914a)"><path fill="#000000" d="M 352.394531 110.765625 C 344.511719 109.640625 338.386719 104.144531 336.414062 96.425781 C 334.4375 88.703125 337.167969 80.945312 343.539062 76.160156 L 358.628906 64.832031 L 343.171875 44.21875 L 328.082031 55.542969 C 321.710938 60.316406 313.484375 60.773438 306.644531 56.707031 C 299.796875 52.648438 296.234375 45.230469 297.363281 37.34375 L 300.03125 18.667969 L 274.535156 15.027344 L 271.867188 33.703125 C 270.738281 41.589844 265.246094 47.71875 257.53125 49.691406 C 249.808594 51.675781 242.0625 48.9375 237.277344 42.5625 L 225.957031 27.46875 L 205.355469 42.933594 L 216.667969 58.027344 C 221.449219 64.402344 221.898438 72.621094 217.839844 79.476562 C 213.785156 86.328125 206.398438 89.878906 198.484375 88.761719 L 179.8125 86.09375 L 176.175781 111.605469 L 194.84375 114.273438 C 202.726562 115.398438 208.851562 120.890625 210.820312 128.613281 C 212.804688 136.328125 210.074219 144.089844 203.699219 148.878906 L 188.617188 160.207031 L 204.066406 180.816406 L 219.160156 169.496094 C 225.523438 164.710938 233.742188 164.265625 240.589844 168.324219 C 247.441406 172.382812 251 179.800781 249.875 187.691406 L 247.207031 206.371094 L 272.703125 210.011719 L 275.371094 191.332031 C 276.496094 183.445312 281.992188 177.320312 289.707031 175.347656 C 297.421875 173.34375 305.175781 176.09375 309.960938 182.472656 L 321.28125 197.5625 L 341.882812 182.105469 L 330.566406 167.003906 C 325.789062 160.636719 325.339844 152.417969 329.402344 145.558594 C 333.460938 138.710938 340.800781 135.136719 348.753906 136.277344 L 367.425781 138.941406 L 371.0625 113.433594 Z M 273.613281 151.1875 C 252.300781 151.1875 234.972656 133.847656 234.972656 112.527344 C 234.972656 91.203125 252.300781 73.867188 273.613281 73.867188 C 294.921875 73.867188 312.253906 91.203125 312.253906 112.527344 C 312.253906 133.847656 294.921875 151.1875 273.613281 151.1875 Z M 273.613281 151.1875 " fill-opacity="1" fill-rule="nonzero"/></g><path fill="#000000" d="M 313.953125 239.691406 L 359.03125 239.691406 L 359.03125 252.578125 L 313.953125 252.578125 Z M 313.953125 239.691406 " fill-opacity="1" fill-rule="nonzero"/><path fill="#000000" d="M 303.390625 283.296875 L 311.636719 273.394531 L 350.277344 305.605469 L 342.035156 315.507812 Z M 303.390625 283.296875 " fill-opacity="1" fill-rule="nonzero"/><path fill="#000000" d="M 275.3125 291.238281 L 288.191406 291.238281 L 288.191406 336.339844 L 275.3125 336.339844 Z M 275.3125 291.238281 " fill-opacity="1" fill-rule="nonzero"/><g clip-path="url(#9fbdfd128d)"><path fill="#000000" d="M 3.265625 111.019531 L 54.785156 98.132812 L 57.90625 110.628906 L 6.386719 123.515625 Z M 3.265625 111.019531 " fill-opacity="1" fill-rule="nonzero"/></g><path fill="#000000" d="M 13.96875 45.191406 L 21.453125 34.710938 L 66.53125 66.925781 L 59.046875 77.40625 Z M 13.96875 45.191406 " fill-opacity="1" fill-rule="nonzero"/><path fill="#000000" d="M 69.144531 2.875 L 81.621094 -0.316406 L 94.792969 51.226562 L 82.316406 54.421875 Z M 69.144531 2.875 " fill-opacity="1" fill-rule="nonzero"/><g fill="#000000" fill-opacity="1"><g transform="translate(141.423409, 163.348304)"><g><path d="M 2.65625 -4.390625 C 2.882812 -4.703125 3.226562 -5.117188 3.6875 -5.640625 L 6.453125 -8.5625 L 7.984375 -8.5625 L 4.515625 -4.921875 L 8.234375 0 L 6.65625 0 L 3.640625 -4.046875 L 2.65625 -3.203125 L 2.65625 0 L 1.375 0 L 1.375 -12.15625 L 2.65625 -12.15625 L 2.65625 -5.71875 C 2.65625 -5.425781 2.632812 -4.984375 2.59375 -4.390625 Z M 2.65625 -4.390625 "/></g></g></g></svg>