<svg xmlns="http://www.w3.org/2000/svg" xmlns:xlink="http://www.w3.org/1999/xlink" width="500" zoomAndPan="magnify" viewBox="0 0 375 374.999991" height="500" preserveAspectRatio="xMidYMid meet" version="1.0"><defs><g/></defs><path fill="#000000" d="M 187.5 0 C 84.144531 0 0 84.140625 0 187.5 C 0 290.859375 84.144531 375 187.5 375 C 290.855469 375 375 290.859375 375 187.5 C 375 84.140625 290.855469 0 187.5 0 Z M 186.105469 307.75 C 173.707031 307.75 163.636719 297.675781 163.636719 285.277344 C 163.636719 272.882812 173.707031 262.808594 186.105469 262.808594 C 198.503906 262.808594 208.574219 272.882812 208.574219 285.277344 C 208.574219 297.675781 198.503906 307.75 186.105469 307.75 Z M 220.972656 202.066406 C 213.6875 206.40625 209.039062 214.773438 209.039062 224.226562 C 209.039062 236.621094 198.96875 246.695312 186.570312 246.695312 C 174.171875 246.695312 164.101562 236.621094 164.101562 224.226562 C 164.101562 198.96875 177.117188 175.570312 198.191406 163.328125 C 204.542969 159.453125 211.207031 150.929688 209.039062 139 C 207.488281 130.164062 200.050781 122.726562 191.21875 121.023438 C 177.582031 118.386719 167.511719 127.375 164.566406 136.984375 C 161.15625 148.914062 148.605469 155.886719 136.671875 152.324219 C 124.742188 148.914062 117.921875 136.363281 121.488281 124.433594 C 131.25 90.804688 164.875 70.351562 199.585938 76.859375 C 226.707031 81.972656 248.398438 103.667969 253.359375 130.941406 C 258.472656 159.453125 245.765625 187.5 220.972656 202.066406 Z M 220.972656 202.066406 " fill-opacity="1" fill-rule="nonzero"/><g fill="#000000" fill-opacity="1"><g transform="translate(183.296859, 22.839639)"><g><path d="M 2.65625 -4.390625 C 2.882812 -4.703125 3.226562 -5.117188 3.6875 -5.640625 L 6.453125 -8.5625 L 7.984375 -8.5625 L 4.515625 -4.921875 L 8.234375 0 L 6.65625 0 L 3.640625 -4.046875 L 2.65625 -3.203125 L 2.65625 0 L 1.375 0 L 1.375 -12.15625 L 2.65625 -12.15625 L 2.65625 -5.71875 C 2.65625 -5.425781 2.632812 -4.984375 2.59375 -4.390625 Z M 2.65625 -4.390625 "/></g></g></g></svg>